<?xml version="1.0" encoding="utf-8" standalone="no"?>
<!DOCTYPE svg PUBLIC "-//W3C//DTD SVG 1.1//EN"
  "http://www.w3.org/Graphics/SVG/1.1/DTD/svg11.dtd">
<!-- Created with matplotlib (https://matplotlib.org/) -->
<svg height="864pt" version="1.1" viewBox="0 0 864 864" width="864pt" xmlns="http://www.w3.org/2000/svg" xmlns:xlink="http://www.w3.org/1999/xlink">
 <defs>
  <style type="text/css">
*{stroke-linecap:butt;stroke-linejoin:round;}
  </style>
 </defs>
 <g id="figure_1">
  <g id="patch_1">
   <path d="M 0 864 
L 864 864 
L 864 0 
L 0 0 
z
" style="fill:#ffffff;"/>
  </g>
  <g id="axes_1">
   <g id="patch_2">
    <path d="M 108 756 
L 777.6 756 
L 777.6 103.68 
L 108 103.68 
z
" style="fill:#ffffff;"/>
   </g>
   <g id="PathCollection_1">
    <defs>
     <path d="M -2.236068 4.472136 
L 0 2.236068 
L 2.236068 4.472136 
L 4.472136 2.236068 
L 2.236068 0 
L 4.472136 -2.236068 
L 2.236068 -4.472136 
L 0 -2.236068 
L -2.236068 -4.472136 
L -4.472136 -2.236068 
L -2.236068 0 
L -4.472136 2.236068 
z
" id="m89e5d17c08" style="stroke:#23231a;stroke-opacity:0.8;"/>
    </defs>
    <g clip-path="url(#p131c4553b6)">
     <use style="fill:#23231a;fill-opacity:0.8;stroke:#23231a;stroke-opacity:0.8;" x="427.816213" xlink:href="#m89e5d17c08" y="537.998403"/>
    </g>
   </g>
   <g id="PathCollection_2">
    <g clip-path="url(#p131c4553b6)">
     <use style="fill:#23231a;fill-opacity:0.8;stroke:#23231a;stroke-opacity:0.8;" x="417.942413" xlink:href="#m89e5d17c08" y="537.998403"/>
    </g>
   </g>
   <g id="PathCollection_3">
    <g clip-path="url(#p131c4553b6)">
     <use style="fill:#23231a;fill-opacity:0.8;stroke:#23231a;stroke-opacity:0.8;" x="487.829599" xlink:href="#m89e5d17c08" y="537.998403"/>
    </g>
   </g>
   <g id="PathCollection_4">
    <g clip-path="url(#p131c4553b6)">
     <use style="fill:#23231a;fill-opacity:0.8;stroke:#23231a;stroke-opacity:0.8;" x="449.118247" xlink:href="#m89e5d17c08" y="537.998403"/>
    </g>
   </g>
   <g id="PathCollection_5">
    <g clip-path="url(#p131c4553b6)">
     <use style="fill:#23231a;fill-opacity:0.8;stroke:#23231a;stroke-opacity:0.8;" x="299.528767" xlink:href="#m89e5d17c08" y="537.998403"/>
    </g>
   </g>
   <g id="PathCollection_6">
    <g clip-path="url(#p131c4553b6)">
     <use style="fill:#23231a;fill-opacity:0.8;stroke:#23231a;stroke-opacity:0.8;" x="420.261439" xlink:href="#m89e5d17c08" y="537.998403"/>
    </g>
   </g>
   <g id="PathCollection_7">
    <defs>
     <path d="M -2.236068 4.472136 
L 0 2.236068 
L 2.236068 4.472136 
L 4.472136 2.236068 
L 2.236068 0 
L 4.472136 -2.236068 
L 2.236068 -4.472136 
L 0 -2.236068 
L -2.236068 -4.472136 
L -4.472136 -2.236068 
L -2.236068 0 
L -4.472136 2.236068 
z
" id="m145df05605" style="stroke:#c40b0b;stroke-opacity:0.8;"/>
    </defs>
    <g clip-path="url(#p131c4553b6)">
     <use style="fill:#c40b0b;fill-opacity:0.8;stroke:#c40b0b;stroke-opacity:0.8;" x="417.942413" xlink:href="#m145df05605" y="405.070599"/>
    </g>
   </g>
   <g id="PathCollection_8">
    <g clip-path="url(#p131c4553b6)">
     <use style="fill:#c40b0b;fill-opacity:0.8;stroke:#c40b0b;stroke-opacity:0.8;" x="319.399003" xlink:href="#m145df05605" y="405.070599"/>
    </g>
   </g>
   <g id="PathCollection_9">
    <g clip-path="url(#p131c4553b6)">
     <use style="fill:#c40b0b;fill-opacity:0.8;stroke:#c40b0b;stroke-opacity:0.8;" x="427.816213" xlink:href="#m145df05605" y="405.070599"/>
    </g>
   </g>
   <g id="PathCollection_10">
    <defs>
     <path d="M -2.236068 4.472136 
L 0 2.236068 
L 2.236068 4.472136 
L 4.472136 2.236068 
L 2.236068 0 
L 4.472136 -2.236068 
L 2.236068 -4.472136 
L 0 -2.236068 
L -2.236068 -4.472136 
L -4.472136 -2.236068 
L -2.236068 0 
L -4.472136 2.236068 
z
" id="m75d3688d31" style="stroke:#6b6b37;stroke-opacity:0.8;"/>
    </defs>
    <g clip-path="url(#p131c4553b6)">
     <use style="fill:#6b6b37;fill-opacity:0.8;stroke:#6b6b37;stroke-opacity:0.8;" x="156.046804" xlink:href="#m75d3688d31" y="272.142796"/>
    </g>
   </g>
   <g id="PathCollection_11">
    <g clip-path="url(#p131c4553b6)">
     <use style="fill:#6b6b37;fill-opacity:0.8;stroke:#6b6b37;stroke-opacity:0.8;" x="197.832015" xlink:href="#m75d3688d31" y="272.142796"/>
    </g>
   </g>
   <g id="PathCollection_12">
    <g clip-path="url(#p131c4553b6)">
     <use style="fill:#6b6b37;fill-opacity:0.8;stroke:#6b6b37;stroke-opacity:0.8;" x="266.178024" xlink:href="#m75d3688d31" y="272.142796"/>
    </g>
   </g>
   <g id="PathCollection_13">
    <g clip-path="url(#p131c4553b6)">
     <use style="fill:#6b6b37;fill-opacity:0.8;stroke:#6b6b37;stroke-opacity:0.8;" x="279.522301" xlink:href="#m75d3688d31" y="272.142796"/>
    </g>
   </g>
   <g id="PathCollection_14">
    <g clip-path="url(#p131c4553b6)">
     <use style="fill:#6b6b37;fill-opacity:0.8;stroke:#6b6b37;stroke-opacity:0.8;" x="285.813028" xlink:href="#m75d3688d31" y="272.142796"/>
    </g>
   </g>
   <g id="PathCollection_15">
    <g clip-path="url(#p131c4553b6)">
     <use style="fill:#6b6b37;fill-opacity:0.8;stroke:#6b6b37;stroke-opacity:0.8;" x="309.58916" xlink:href="#m75d3688d31" y="272.142796"/>
    </g>
   </g>
   <g id="PathCollection_16">
    <g clip-path="url(#p131c4553b6)">
     <use style="fill:#6b6b37;fill-opacity:0.8;stroke:#6b6b37;stroke-opacity:0.8;" x="310.350273" xlink:href="#m75d3688d31" y="272.142796"/>
    </g>
   </g>
   <g id="PathCollection_17">
    <defs>
     <path d="M -2.236068 4.472136 
L 0 2.236068 
L 2.236068 4.472136 
L 4.472136 2.236068 
L 2.236068 0 
L 4.472136 -2.236068 
L 2.236068 -4.472136 
L 0 -2.236068 
L -2.236068 -4.472136 
L -4.472136 -2.236068 
L -2.236068 0 
L -4.472136 2.236068 
z
" id="m7088efc796" style="stroke:#35abcc;stroke-opacity:0.8;"/>
    </defs>
    <g clip-path="url(#p131c4553b6)">
     <use style="fill:#35abcc;fill-opacity:0.8;stroke:#35abcc;stroke-opacity:0.8;" x="268.42595" xlink:href="#m7088efc796" y="139.214993"/>
    </g>
   </g>
   <g id="PathCollection_18">
    <g clip-path="url(#p131c4553b6)">
     <use style="fill:#35abcc;fill-opacity:0.8;stroke:#35abcc;stroke-opacity:0.8;" x="281.75086" xlink:href="#m7088efc796" y="139.214993"/>
    </g>
   </g>
   <g id="PathCollection_19">
    <g clip-path="url(#p131c4553b6)">
     <use style="fill:#35abcc;fill-opacity:0.8;stroke:#35abcc;stroke-opacity:0.8;" x="425.313193" xlink:href="#m7088efc796" y="139.214993"/>
    </g>
   </g>
   <g id="PathCollection_20">
    <g clip-path="url(#p131c4553b6)">
     <use style="fill:#35abcc;fill-opacity:0.8;stroke:#35abcc;stroke-opacity:0.8;" x="454.390393" xlink:href="#m7088efc796" y="139.214993"/>
    </g>
   </g>
   <g id="patch_3">
    <path clip-path="url(#p131c4553b6)" d="M 138.436364 756 
L 143.118881 756 
L 143.118881 754.670722 
L 138.436364 754.670722 
z
" style="fill:#2ca25f;stroke:#000000;stroke-linejoin:miter;stroke-width:1.4;"/>
   </g>
   <g id="patch_4">
    <path clip-path="url(#p131c4553b6)" d="M 143.118881 756 
L 147.801399 756 
L 147.801399 756 
L 143.118881 756 
z
" style="fill:#2ca25f;stroke:#000000;stroke-linejoin:miter;stroke-width:1.4;"/>
   </g>
   <g id="patch_5">
    <path clip-path="url(#p131c4553b6)" d="M 147.801399 756 
L 152.483916 756 
L 152.483916 756 
L 147.801399 756 
z
" style="fill:#2ca25f;stroke:#000000;stroke-linejoin:miter;stroke-width:1.4;"/>
   </g>
   <g id="patch_6">
    <path clip-path="url(#p131c4553b6)" d="M 152.483916 756 
L 157.166434 756 
L 157.166434 756 
L 152.483916 756 
z
" style="fill:#2ca25f;stroke:#000000;stroke-linejoin:miter;stroke-width:1.4;"/>
   </g>
   <g id="patch_7">
    <path clip-path="url(#p131c4553b6)" d="M 157.166434 756 
L 161.848951 756 
L 161.848951 754.670722 
L 157.166434 754.670722 
z
" style="fill:#2ca25f;stroke:#000000;stroke-linejoin:miter;stroke-width:1.4;"/>
   </g>
   <g id="patch_8">
    <path clip-path="url(#p131c4553b6)" d="M 161.848951 756 
L 166.531469 756 
L 166.531469 756 
L 161.848951 756 
z
" style="fill:#2ca25f;stroke:#000000;stroke-linejoin:miter;stroke-width:1.4;"/>
   </g>
   <g id="patch_9">
    <path clip-path="url(#p131c4553b6)" d="M 166.531469 756 
L 171.213986 756 
L 171.213986 756 
L 166.531469 756 
z
" style="fill:#2ca25f;stroke:#000000;stroke-linejoin:miter;stroke-width:1.4;"/>
   </g>
   <g id="patch_10">
    <path clip-path="url(#p131c4553b6)" d="M 171.213986 756 
L 175.896503 756 
L 175.896503 756 
L 171.213986 756 
z
" style="fill:#2ca25f;stroke:#000000;stroke-linejoin:miter;stroke-width:1.4;"/>
   </g>
   <g id="patch_11">
    <path clip-path="url(#p131c4553b6)" d="M 175.896503 756 
L 180.579021 756 
L 180.579021 756 
L 175.896503 756 
z
" style="fill:#2ca25f;stroke:#000000;stroke-linejoin:miter;stroke-width:1.4;"/>
   </g>
   <g id="patch_12">
    <path clip-path="url(#p131c4553b6)" d="M 180.579021 756 
L 185.261538 756 
L 185.261538 756 
L 180.579021 756 
z
" style="fill:#2ca25f;stroke:#000000;stroke-linejoin:miter;stroke-width:1.4;"/>
   </g>
   <g id="patch_13">
    <path clip-path="url(#p131c4553b6)" d="M 185.261538 756 
L 189.944056 756 
L 189.944056 756 
L 185.261538 756 
z
" style="fill:#2ca25f;stroke:#000000;stroke-linejoin:miter;stroke-width:1.4;"/>
   </g>
   <g id="patch_14">
    <path clip-path="url(#p131c4553b6)" d="M 189.944056 756 
L 194.626573 756 
L 194.626573 756 
L 189.944056 756 
z
" style="fill:#2ca25f;stroke:#000000;stroke-linejoin:miter;stroke-width:1.4;"/>
   </g>
   <g id="patch_15">
    <path clip-path="url(#p131c4553b6)" d="M 194.626573 756 
L 199.309091 756 
L 199.309091 756 
L 194.626573 756 
z
" style="fill:#2ca25f;stroke:#000000;stroke-linejoin:miter;stroke-width:1.4;"/>
   </g>
   <g id="patch_16">
    <path clip-path="url(#p131c4553b6)" d="M 199.309091 756 
L 203.991608 756 
L 203.991608 756 
L 199.309091 756 
z
" style="fill:#2ca25f;stroke:#000000;stroke-linejoin:miter;stroke-width:1.4;"/>
   </g>
   <g id="patch_17">
    <path clip-path="url(#p131c4553b6)" d="M 203.991608 756 
L 208.674126 756 
L 208.674126 756 
L 203.991608 756 
z
" style="fill:#2ca25f;stroke:#000000;stroke-linejoin:miter;stroke-width:1.4;"/>
   </g>
   <g id="patch_18">
    <path clip-path="url(#p131c4553b6)" d="M 208.674126 756 
L 213.356643 756 
L 213.356643 756 
L 208.674126 756 
z
" style="fill:#2ca25f;stroke:#000000;stroke-linejoin:miter;stroke-width:1.4;"/>
   </g>
   <g id="patch_19">
    <path clip-path="url(#p131c4553b6)" d="M 213.356643 756 
L 218.039161 756 
L 218.039161 756 
L 213.356643 756 
z
" style="fill:#2ca25f;stroke:#000000;stroke-linejoin:miter;stroke-width:1.4;"/>
   </g>
   <g id="patch_20">
    <path clip-path="url(#p131c4553b6)" d="M 218.039161 756 
L 222.721678 756 
L 222.721678 756 
L 218.039161 756 
z
" style="fill:#2ca25f;stroke:#000000;stroke-linejoin:miter;stroke-width:1.4;"/>
   </g>
   <g id="patch_21">
    <path clip-path="url(#p131c4553b6)" d="M 222.721678 756 
L 227.404196 756 
L 227.404196 754.670722 
L 222.721678 754.670722 
z
" style="fill:#2ca25f;stroke:#000000;stroke-linejoin:miter;stroke-width:1.4;"/>
   </g>
   <g id="patch_22">
    <path clip-path="url(#p131c4553b6)" d="M 227.404196 756 
L 232.086713 756 
L 232.086713 754.670722 
L 227.404196 754.670722 
z
" style="fill:#2ca25f;stroke:#000000;stroke-linejoin:miter;stroke-width:1.4;"/>
   </g>
   <g id="patch_23">
    <path clip-path="url(#p131c4553b6)" d="M 232.086713 756 
L 236.769231 756 
L 236.769231 753.341444 
L 232.086713 753.341444 
z
" style="fill:#2ca25f;stroke:#000000;stroke-linejoin:miter;stroke-width:1.4;"/>
   </g>
   <g id="patch_24">
    <path clip-path="url(#p131c4553b6)" d="M 236.769231 756 
L 241.451748 756 
L 241.451748 754.670722 
L 236.769231 754.670722 
z
" style="fill:#2ca25f;stroke:#000000;stroke-linejoin:miter;stroke-width:1.4;"/>
   </g>
   <g id="patch_25">
    <path clip-path="url(#p131c4553b6)" d="M 241.451748 756 
L 246.134266 756 
L 246.134266 754.670722 
L 241.451748 754.670722 
z
" style="fill:#2ca25f;stroke:#000000;stroke-linejoin:miter;stroke-width:1.4;"/>
   </g>
   <g id="patch_26">
    <path clip-path="url(#p131c4553b6)" d="M 246.134266 756 
L 250.816783 756 
L 250.816783 754.670722 
L 246.134266 754.670722 
z
" style="fill:#2ca25f;stroke:#000000;stroke-linejoin:miter;stroke-width:1.4;"/>
   </g>
   <g id="patch_27">
    <path clip-path="url(#p131c4553b6)" d="M 250.816783 756 
L 255.499301 756 
L 255.499301 754.670722 
L 250.816783 754.670722 
z
" style="fill:#2ca25f;stroke:#000000;stroke-linejoin:miter;stroke-width:1.4;"/>
   </g>
   <g id="patch_28">
    <path clip-path="url(#p131c4553b6)" d="M 255.499301 756 
L 260.181818 756 
L 260.181818 752.012166 
L 255.499301 752.012166 
z
" style="fill:#2ca25f;stroke:#000000;stroke-linejoin:miter;stroke-width:1.4;"/>
   </g>
   <g id="patch_29">
    <path clip-path="url(#p131c4553b6)" d="M 260.181818 756 
L 264.864336 756 
L 264.864336 748.024332 
L 260.181818 748.024332 
z
" style="fill:#2ca25f;stroke:#000000;stroke-linejoin:miter;stroke-width:1.4;"/>
   </g>
   <g id="patch_30">
    <path clip-path="url(#p131c4553b6)" d="M 264.864336 756 
L 269.546853 756 
L 269.546853 752.012166 
L 264.864336 752.012166 
z
" style="fill:#2ca25f;stroke:#000000;stroke-linejoin:miter;stroke-width:1.4;"/>
   </g>
   <g id="patch_31">
    <path clip-path="url(#p131c4553b6)" d="M 269.546853 756 
L 274.229371 756 
L 274.229371 744.036498 
L 269.546853 744.036498 
z
" style="fill:#2ca25f;stroke:#000000;stroke-linejoin:miter;stroke-width:1.4;"/>
   </g>
   <g id="patch_32">
    <path clip-path="url(#p131c4553b6)" d="M 274.229371 756 
L 278.911888 756 
L 278.911888 741.377942 
L 274.229371 741.377942 
z
" style="fill:#2ca25f;stroke:#000000;stroke-linejoin:miter;stroke-width:1.4;"/>
   </g>
   <g id="patch_33">
    <path clip-path="url(#p131c4553b6)" d="M 278.911888 756 
L 283.594406 756 
L 283.594406 744.036498 
L 278.911888 744.036498 
z
" style="fill:#2ca25f;stroke:#000000;stroke-linejoin:miter;stroke-width:1.4;"/>
   </g>
   <g id="patch_34">
    <path clip-path="url(#p131c4553b6)" d="M 283.594406 756 
L 288.276923 756 
L 288.276923 740.048664 
L 283.594406 740.048664 
z
" style="fill:#2ca25f;stroke:#000000;stroke-linejoin:miter;stroke-width:1.4;"/>
   </g>
   <g id="patch_35">
    <path clip-path="url(#p131c4553b6)" d="M 288.276923 756 
L 292.959441 756 
L 292.959441 736.06083 
L 288.276923 736.06083 
z
" style="fill:#2ca25f;stroke:#000000;stroke-linejoin:miter;stroke-width:1.4;"/>
   </g>
   <g id="patch_36">
    <path clip-path="url(#p131c4553b6)" d="M 292.959441 756 
L 297.641958 756 
L 297.641958 728.085161 
L 292.959441 728.085161 
z
" style="fill:#2ca25f;stroke:#000000;stroke-linejoin:miter;stroke-width:1.4;"/>
   </g>
   <g id="patch_37">
    <path clip-path="url(#p131c4553b6)" d="M 297.641958 756 
L 302.324476 756 
L 302.324476 736.06083 
L 297.641958 736.06083 
z
" style="fill:#2ca25f;stroke:#000000;stroke-linejoin:miter;stroke-width:1.4;"/>
   </g>
   <g id="patch_38">
    <path clip-path="url(#p131c4553b6)" d="M 302.324476 756 
L 307.006993 756 
L 307.006993 730.743717 
L 302.324476 730.743717 
z
" style="fill:#2ca25f;stroke:#000000;stroke-linejoin:miter;stroke-width:1.4;"/>
   </g>
   <g id="patch_39">
    <path clip-path="url(#p131c4553b6)" d="M 307.006993 756 
L 311.68951 756 
L 311.68951 732.072995 
L 307.006993 732.072995 
z
" style="fill:#2ca25f;stroke:#000000;stroke-linejoin:miter;stroke-width:1.4;"/>
   </g>
   <g id="patch_40">
    <path clip-path="url(#p131c4553b6)" d="M 311.68951 756 
L 316.372028 756 
L 316.372028 692.194654 
L 311.68951 692.194654 
z
" style="fill:#2ca25f;stroke:#000000;stroke-linejoin:miter;stroke-width:1.4;"/>
   </g>
   <g id="patch_41">
    <path clip-path="url(#p131c4553b6)" d="M 316.372028 756 
L 321.054545 756 
L 321.054545 658.962704 
L 316.372028 658.962704 
z
" style="fill:#2ca25f;stroke:#000000;stroke-linejoin:miter;stroke-width:1.4;"/>
   </g>
   <g id="patch_42">
    <path clip-path="url(#p131c4553b6)" d="M 321.054545 756 
L 325.737063 756 
L 325.737063 677.572596 
L 321.054545 677.572596 
z
" style="fill:#ffffff;stroke:#000000;stroke-linejoin:miter;stroke-width:1.4;"/>
   </g>
   <g id="patch_43">
    <path clip-path="url(#p131c4553b6)" d="M 325.737063 756 
L 330.41958 756 
L 330.41958 611.108694 
L 325.737063 611.108694 
z
" style="fill:#ffffff;stroke:#000000;stroke-linejoin:miter;stroke-width:1.4;"/>
   </g>
   <g id="patch_44">
    <path clip-path="url(#p131c4553b6)" d="M 330.41958 756 
L 335.102098 756 
L 335.102098 616.425807 
L 330.41958 616.425807 
z
" style="fill:#ffffff;stroke:#000000;stroke-linejoin:miter;stroke-width:1.4;"/>
   </g>
   <g id="patch_45">
    <path clip-path="url(#p131c4553b6)" d="M 335.102098 756 
L 339.784615 756 
L 339.784615 560.596129 
L 335.102098 560.596129 
z
" style="fill:#ffffff;stroke:#000000;stroke-linejoin:miter;stroke-width:1.4;"/>
   </g>
   <g id="patch_46">
    <path clip-path="url(#p131c4553b6)" d="M 339.784615 756 
L 344.467133 756 
L 344.467133 518.059232 
L 339.784615 518.059232 
z
" style="fill:#ffffff;stroke:#000000;stroke-linejoin:miter;stroke-width:1.4;"/>
   </g>
   <g id="patch_47">
    <path clip-path="url(#p131c4553b6)" d="M 344.467133 756 
L 349.14965 756 
L 349.14965 439.631828 
L 344.467133 439.631828 
z
" style="fill:#ffffff;stroke:#000000;stroke-linejoin:miter;stroke-width:1.4;"/>
   </g>
   <g id="patch_48">
    <path clip-path="url(#p131c4553b6)" d="M 349.14965 756 
L 353.832168 756 
L 353.832168 402.412043 
L 349.14965 402.412043 
z
" style="fill:#ffffff;stroke:#000000;stroke-linejoin:miter;stroke-width:1.4;"/>
   </g>
   <g id="patch_49">
    <path clip-path="url(#p131c4553b6)" d="M 353.832168 756 
L 358.514685 756 
L 358.514685 319.996805 
L 353.832168 319.996805 
z
" style="fill:#ffffff;stroke:#000000;stroke-linejoin:miter;stroke-width:1.4;"/>
   </g>
   <g id="patch_50">
    <path clip-path="url(#p131c4553b6)" d="M 358.514685 756 
L 363.197203 756 
L 363.197203 334.618864 
L 358.514685 334.618864 
z
" style="fill:#ffffff;stroke:#000000;stroke-linejoin:miter;stroke-width:1.4;"/>
   </g>
   <g id="patch_51">
    <path clip-path="url(#p131c4553b6)" d="M 363.197203 756 
L 367.87972 756 
L 367.87972 391.777819 
L 363.197203 391.777819 
z
" style="fill:#ffffff;stroke:#000000;stroke-linejoin:miter;stroke-width:1.4;"/>
   </g>
   <g id="patch_52">
    <path clip-path="url(#p131c4553b6)" d="M 367.87972 756 
L 372.562238 756 
L 372.562238 390.448541 
L 367.87972 390.448541 
z
" style="fill:#ffffff;stroke:#000000;stroke-linejoin:miter;stroke-width:1.4;"/>
   </g>
   <g id="patch_53">
    <path clip-path="url(#p131c4553b6)" d="M 372.562238 756 
L 377.244755 756 
L 377.244755 415.704824 
L 372.562238 415.704824 
z
" style="fill:#ffffff;stroke:#000000;stroke-linejoin:miter;stroke-width:1.4;"/>
   </g>
   <g id="patch_54">
    <path clip-path="url(#p131c4553b6)" d="M 377.244755 756 
L 381.927273 756 
L 381.927273 474.193057 
L 377.244755 474.193057 
z
" style="fill:#ffffff;stroke:#000000;stroke-linejoin:miter;stroke-width:1.4;"/>
   </g>
   <g id="patch_55">
    <path clip-path="url(#p131c4553b6)" d="M 381.927273 756 
L 386.60979 756 
L 386.60979 547.303349 
L 381.927273 547.303349 
z
" style="fill:#ffffff;stroke:#000000;stroke-linejoin:miter;stroke-width:1.4;"/>
   </g>
   <g id="patch_56">
    <path clip-path="url(#p131c4553b6)" d="M 386.60979 756 
L 391.292308 756 
L 391.292308 551.291183 
L 386.60979 551.291183 
z
" style="fill:#ffffff;stroke:#000000;stroke-linejoin:miter;stroke-width:1.4;"/>
   </g>
   <g id="patch_57">
    <path clip-path="url(#p131c4553b6)" d="M 391.292308 756 
L 395.974825 756 
L 395.974825 576.547466 
L 391.292308 576.547466 
z
" style="fill:#ffffff;stroke:#000000;stroke-linejoin:miter;stroke-width:1.4;"/>
   </g>
   <g id="patch_58">
    <path clip-path="url(#p131c4553b6)" d="M 395.974825 756 
L 400.657343 756 
L 400.657343 608.450138 
L 395.974825 608.450138 
z
" style="fill:#ffffff;stroke:#000000;stroke-linejoin:miter;stroke-width:1.4;"/>
   </g>
   <g id="patch_59">
    <path clip-path="url(#p131c4553b6)" d="M 400.657343 756 
L 405.33986 756 
L 405.33986 652.316313 
L 400.657343 652.316313 
z
" style="fill:#ffffff;stroke:#000000;stroke-linejoin:miter;stroke-width:1.4;"/>
   </g>
   <g id="patch_60">
    <path clip-path="url(#p131c4553b6)" d="M 405.33986 756 
L 410.022378 756 
L 410.022378 643.011367 
L 405.33986 643.011367 
z
" style="fill:#ffffff;stroke:#000000;stroke-linejoin:miter;stroke-width:1.4;"/>
   </g>
   <g id="patch_61">
    <path clip-path="url(#p131c4553b6)" d="M 410.022378 756 
L 414.704895 756 
L 414.704895 696.182489 
L 410.022378 696.182489 
z
" style="fill:#99d8c9;stroke:#000000;stroke-linejoin:miter;stroke-width:1.4;"/>
   </g>
   <g id="patch_62">
    <path clip-path="url(#p131c4553b6)" d="M 414.704895 756 
L 419.387413 756 
L 419.387413 689.536098 
L 414.704895 689.536098 
z
" style="fill:#99d8c9;stroke:#000000;stroke-linejoin:miter;stroke-width:1.4;"/>
   </g>
   <g id="patch_63">
    <path clip-path="url(#p131c4553b6)" d="M 419.387413 756 
L 424.06993 756 
L 424.06993 696.182489 
L 419.387413 696.182489 
z
" style="fill:#99d8c9;stroke:#000000;stroke-linejoin:miter;stroke-width:1.4;"/>
   </g>
   <g id="patch_64">
    <path clip-path="url(#p131c4553b6)" d="M 424.06993 756 
L 428.752448 756 
L 428.752448 728.085161 
L 424.06993 728.085161 
z
" style="fill:#99d8c9;stroke:#000000;stroke-linejoin:miter;stroke-width:1.4;"/>
   </g>
   <g id="patch_65">
    <path clip-path="url(#p131c4553b6)" d="M 428.752448 756 
L 433.434965 756 
L 433.434965 718.780215 
L 428.752448 718.780215 
z
" style="fill:#99d8c9;stroke:#000000;stroke-linejoin:miter;stroke-width:1.4;"/>
   </g>
   <g id="patch_66">
    <path clip-path="url(#p131c4553b6)" d="M 433.434965 756 
L 438.117483 756 
L 438.117483 722.768049 
L 433.434965 722.768049 
z
" style="fill:#99d8c9;stroke:#000000;stroke-linejoin:miter;stroke-width:1.4;"/>
   </g>
   <g id="patch_67">
    <path clip-path="url(#p131c4553b6)" d="M 438.117483 756 
L 442.8 756 
L 442.8 736.06083 
L 438.117483 736.06083 
z
" style="fill:#99d8c9;stroke:#000000;stroke-linejoin:miter;stroke-width:1.4;"/>
   </g>
   <g id="patch_68">
    <path clip-path="url(#p131c4553b6)" d="M 442.8 756 
L 447.482517 756 
L 447.482517 729.414439 
L 442.8 729.414439 
z
" style="fill:#99d8c9;stroke:#000000;stroke-linejoin:miter;stroke-width:1.4;"/>
   </g>
   <g id="patch_69">
    <path clip-path="url(#p131c4553b6)" d="M 447.482517 756 
L 452.165035 756 
L 452.165035 741.377942 
L 447.482517 741.377942 
z
" style="fill:#99d8c9;stroke:#000000;stroke-linejoin:miter;stroke-width:1.4;"/>
   </g>
   <g id="patch_70">
    <path clip-path="url(#p131c4553b6)" d="M 452.165035 756 
L 456.847552 756 
L 456.847552 746.695054 
L 452.165035 746.695054 
z
" style="fill:#99d8c9;stroke:#000000;stroke-linejoin:miter;stroke-width:1.4;"/>
   </g>
   <g id="patch_71">
    <path clip-path="url(#p131c4553b6)" d="M 456.847552 756 
L 461.53007 756 
L 461.53007 742.70722 
L 456.847552 742.70722 
z
" style="fill:#99d8c9;stroke:#000000;stroke-linejoin:miter;stroke-width:1.4;"/>
   </g>
   <g id="patch_72">
    <path clip-path="url(#p131c4553b6)" d="M 461.53007 756 
L 466.212587 756 
L 466.212587 748.024332 
L 461.53007 748.024332 
z
" style="fill:#99d8c9;stroke:#000000;stroke-linejoin:miter;stroke-width:1.4;"/>
   </g>
   <g id="patch_73">
    <path clip-path="url(#p131c4553b6)" d="M 466.212587 756 
L 470.895105 756 
L 470.895105 749.35361 
L 466.212587 749.35361 
z
" style="fill:#99d8c9;stroke:#000000;stroke-linejoin:miter;stroke-width:1.4;"/>
   </g>
   <g id="patch_74">
    <path clip-path="url(#p131c4553b6)" d="M 470.895105 756 
L 475.577622 756 
L 475.577622 745.365776 
L 470.895105 745.365776 
z
" style="fill:#99d8c9;stroke:#000000;stroke-linejoin:miter;stroke-width:1.4;"/>
   </g>
   <g id="patch_75">
    <path clip-path="url(#p131c4553b6)" d="M 475.577622 756 
L 480.26014 756 
L 480.26014 752.012166 
L 475.577622 752.012166 
z
" style="fill:#99d8c9;stroke:#000000;stroke-linejoin:miter;stroke-width:1.4;"/>
   </g>
   <g id="patch_76">
    <path clip-path="url(#p131c4553b6)" d="M 480.26014 756 
L 484.942657 756 
L 484.942657 749.35361 
L 480.26014 749.35361 
z
" style="fill:#99d8c9;stroke:#000000;stroke-linejoin:miter;stroke-width:1.4;"/>
   </g>
   <g id="patch_77">
    <path clip-path="url(#p131c4553b6)" d="M 484.942657 756 
L 489.625175 756 
L 489.625175 749.35361 
L 484.942657 749.35361 
z
" style="fill:#99d8c9;stroke:#000000;stroke-linejoin:miter;stroke-width:1.4;"/>
   </g>
   <g id="patch_78">
    <path clip-path="url(#p131c4553b6)" d="M 489.625175 756 
L 494.307692 756 
L 494.307692 753.341444 
L 489.625175 753.341444 
z
" style="fill:#99d8c9;stroke:#000000;stroke-linejoin:miter;stroke-width:1.4;"/>
   </g>
   <g id="patch_79">
    <path clip-path="url(#p131c4553b6)" d="M 494.307692 756 
L 498.99021 756 
L 498.99021 754.670722 
L 494.307692 754.670722 
z
" style="fill:#99d8c9;stroke:#000000;stroke-linejoin:miter;stroke-width:1.4;"/>
   </g>
   <g id="patch_80">
    <path clip-path="url(#p131c4553b6)" d="M 498.99021 756 
L 503.672727 756 
L 503.672727 753.341444 
L 498.99021 753.341444 
z
" style="fill:#99d8c9;stroke:#000000;stroke-linejoin:miter;stroke-width:1.4;"/>
   </g>
   <g id="patch_81">
    <path clip-path="url(#p131c4553b6)" d="M 503.672727 756 
L 508.355245 756 
L 508.355245 754.670722 
L 503.672727 754.670722 
z
" style="fill:#99d8c9;stroke:#000000;stroke-linejoin:miter;stroke-width:1.4;"/>
   </g>
   <g id="patch_82">
    <path clip-path="url(#p131c4553b6)" d="M 508.355245 756 
L 513.037762 756 
L 513.037762 754.670722 
L 508.355245 754.670722 
z
" style="fill:#99d8c9;stroke:#000000;stroke-linejoin:miter;stroke-width:1.4;"/>
   </g>
   <g id="patch_83">
    <path clip-path="url(#p131c4553b6)" d="M 513.037762 756 
L 517.72028 756 
L 517.72028 753.341444 
L 513.037762 753.341444 
z
" style="fill:#99d8c9;stroke:#000000;stroke-linejoin:miter;stroke-width:1.4;"/>
   </g>
   <g id="patch_84">
    <path clip-path="url(#p131c4553b6)" d="M 517.72028 756 
L 522.402797 756 
L 522.402797 754.670722 
L 517.72028 754.670722 
z
" style="fill:#99d8c9;stroke:#000000;stroke-linejoin:miter;stroke-width:1.4;"/>
   </g>
   <g id="patch_85">
    <path clip-path="url(#p131c4553b6)" d="M 522.402797 756 
L 527.085315 756 
L 527.085315 752.012166 
L 522.402797 752.012166 
z
" style="fill:#99d8c9;stroke:#000000;stroke-linejoin:miter;stroke-width:1.4;"/>
   </g>
   <g id="patch_86">
    <path clip-path="url(#p131c4553b6)" d="M 527.085315 756 
L 531.767832 756 
L 531.767832 753.341444 
L 527.085315 753.341444 
z
" style="fill:#99d8c9;stroke:#000000;stroke-linejoin:miter;stroke-width:1.4;"/>
   </g>
   <g id="patch_87">
    <path clip-path="url(#p131c4553b6)" d="M 531.767832 756 
L 536.45035 756 
L 536.45035 753.341444 
L 531.767832 753.341444 
z
" style="fill:#99d8c9;stroke:#000000;stroke-linejoin:miter;stroke-width:1.4;"/>
   </g>
   <g id="patch_88">
    <path clip-path="url(#p131c4553b6)" d="M 536.45035 756 
L 541.132867 756 
L 541.132867 754.670722 
L 536.45035 754.670722 
z
" style="fill:#99d8c9;stroke:#000000;stroke-linejoin:miter;stroke-width:1.4;"/>
   </g>
   <g id="patch_89">
    <path clip-path="url(#p131c4553b6)" d="M 541.132867 756 
L 545.815385 756 
L 545.815385 753.341444 
L 541.132867 753.341444 
z
" style="fill:#99d8c9;stroke:#000000;stroke-linejoin:miter;stroke-width:1.4;"/>
   </g>
   <g id="patch_90">
    <path clip-path="url(#p131c4553b6)" d="M 545.815385 756 
L 550.497902 756 
L 550.497902 756 
L 545.815385 756 
z
" style="fill:#99d8c9;stroke:#000000;stroke-linejoin:miter;stroke-width:1.4;"/>
   </g>
   <g id="patch_91">
    <path clip-path="url(#p131c4553b6)" d="M 550.497902 756 
L 555.18042 756 
L 555.18042 756 
L 550.497902 756 
z
" style="fill:#99d8c9;stroke:#000000;stroke-linejoin:miter;stroke-width:1.4;"/>
   </g>
   <g id="patch_92">
    <path clip-path="url(#p131c4553b6)" d="M 555.18042 756 
L 559.862937 756 
L 559.862937 756 
L 555.18042 756 
z
" style="fill:#99d8c9;stroke:#000000;stroke-linejoin:miter;stroke-width:1.4;"/>
   </g>
   <g id="patch_93">
    <path clip-path="url(#p131c4553b6)" d="M 559.862937 756 
L 564.545455 756 
L 564.545455 756 
L 559.862937 756 
z
" style="fill:#99d8c9;stroke:#000000;stroke-linejoin:miter;stroke-width:1.4;"/>
   </g>
   <g id="patch_94">
    <path clip-path="url(#p131c4553b6)" d="M 564.545455 756 
L 569.227972 756 
L 569.227972 756 
L 564.545455 756 
z
" style="fill:#99d8c9;stroke:#000000;stroke-linejoin:miter;stroke-width:1.4;"/>
   </g>
   <g id="patch_95">
    <path clip-path="url(#p131c4553b6)" d="M 569.227972 756 
L 573.91049 756 
L 573.91049 754.670722 
L 569.227972 754.670722 
z
" style="fill:#99d8c9;stroke:#000000;stroke-linejoin:miter;stroke-width:1.4;"/>
   </g>
   <g id="patch_96">
    <path clip-path="url(#p131c4553b6)" d="M 573.91049 756 
L 578.593007 756 
L 578.593007 752.012166 
L 573.91049 752.012166 
z
" style="fill:#99d8c9;stroke:#000000;stroke-linejoin:miter;stroke-width:1.4;"/>
   </g>
   <g id="patch_97">
    <path clip-path="url(#p131c4553b6)" d="M 578.593007 756 
L 583.275524 756 
L 583.275524 756 
L 578.593007 756 
z
" style="fill:#99d8c9;stroke:#000000;stroke-linejoin:miter;stroke-width:1.4;"/>
   </g>
   <g id="patch_98">
    <path clip-path="url(#p131c4553b6)" d="M 583.275524 756 
L 587.958042 756 
L 587.958042 754.670722 
L 583.275524 754.670722 
z
" style="fill:#99d8c9;stroke:#000000;stroke-linejoin:miter;stroke-width:1.4;"/>
   </g>
   <g id="patch_99">
    <path clip-path="url(#p131c4553b6)" d="M 587.958042 756 
L 592.640559 756 
L 592.640559 756 
L 587.958042 756 
z
" style="fill:#99d8c9;stroke:#000000;stroke-linejoin:miter;stroke-width:1.4;"/>
   </g>
   <g id="patch_100">
    <path clip-path="url(#p131c4553b6)" d="M 592.640559 756 
L 597.323077 756 
L 597.323077 756 
L 592.640559 756 
z
" style="fill:#99d8c9;stroke:#000000;stroke-linejoin:miter;stroke-width:1.4;"/>
   </g>
   <g id="patch_101">
    <path clip-path="url(#p131c4553b6)" d="M 597.323077 756 
L 602.005594 756 
L 602.005594 756 
L 597.323077 756 
z
" style="fill:#99d8c9;stroke:#000000;stroke-linejoin:miter;stroke-width:1.4;"/>
   </g>
   <g id="patch_102">
    <path clip-path="url(#p131c4553b6)" d="M 602.005594 756 
L 606.688112 756 
L 606.688112 756 
L 602.005594 756 
z
" style="fill:#99d8c9;stroke:#000000;stroke-linejoin:miter;stroke-width:1.4;"/>
   </g>
   <g id="patch_103">
    <path clip-path="url(#p131c4553b6)" d="M 606.688112 756 
L 611.370629 756 
L 611.370629 756 
L 606.688112 756 
z
" style="fill:#99d8c9;stroke:#000000;stroke-linejoin:miter;stroke-width:1.4;"/>
   </g>
   <g id="patch_104">
    <path clip-path="url(#p131c4553b6)" d="M 611.370629 756 
L 616.053147 756 
L 616.053147 754.670722 
L 611.370629 754.670722 
z
" style="fill:#99d8c9;stroke:#000000;stroke-linejoin:miter;stroke-width:1.4;"/>
   </g>
   <g id="patch_105">
    <path clip-path="url(#p131c4553b6)" d="M 616.053147 756 
L 620.735664 756 
L 620.735664 756 
L 616.053147 756 
z
" style="fill:#99d8c9;stroke:#000000;stroke-linejoin:miter;stroke-width:1.4;"/>
   </g>
   <g id="patch_106">
    <path clip-path="url(#p131c4553b6)" d="M 620.735664 756 
L 625.418182 756 
L 625.418182 756 
L 620.735664 756 
z
" style="fill:#99d8c9;stroke:#000000;stroke-linejoin:miter;stroke-width:1.4;"/>
   </g>
   <g id="patch_107">
    <path clip-path="url(#p131c4553b6)" d="M 625.418182 756 
L 630.100699 756 
L 630.100699 756 
L 625.418182 756 
z
" style="fill:#99d8c9;stroke:#000000;stroke-linejoin:miter;stroke-width:1.4;"/>
   </g>
   <g id="patch_108">
    <path clip-path="url(#p131c4553b6)" d="M 630.100699 756 
L 634.783217 756 
L 634.783217 756 
L 630.100699 756 
z
" style="fill:#99d8c9;stroke:#000000;stroke-linejoin:miter;stroke-width:1.4;"/>
   </g>
   <g id="patch_109">
    <path clip-path="url(#p131c4553b6)" d="M 634.783217 756 
L 639.465734 756 
L 639.465734 756 
L 634.783217 756 
z
" style="fill:#99d8c9;stroke:#000000;stroke-linejoin:miter;stroke-width:1.4;"/>
   </g>
   <g id="patch_110">
    <path clip-path="url(#p131c4553b6)" d="M 639.465734 756 
L 644.148252 756 
L 644.148252 756 
L 639.465734 756 
z
" style="fill:#99d8c9;stroke:#000000;stroke-linejoin:miter;stroke-width:1.4;"/>
   </g>
   <g id="patch_111">
    <path clip-path="url(#p131c4553b6)" d="M 644.148252 756 
L 648.830769 756 
L 648.830769 756 
L 644.148252 756 
z
" style="fill:#99d8c9;stroke:#000000;stroke-linejoin:miter;stroke-width:1.4;"/>
   </g>
   <g id="patch_112">
    <path clip-path="url(#p131c4553b6)" d="M 648.830769 756 
L 653.513287 756 
L 653.513287 756 
L 648.830769 756 
z
" style="fill:#99d8c9;stroke:#000000;stroke-linejoin:miter;stroke-width:1.4;"/>
   </g>
   <g id="patch_113">
    <path clip-path="url(#p131c4553b6)" d="M 653.513287 756 
L 658.195804 756 
L 658.195804 756 
L 653.513287 756 
z
" style="fill:#99d8c9;stroke:#000000;stroke-linejoin:miter;stroke-width:1.4;"/>
   </g>
   <g id="patch_114">
    <path clip-path="url(#p131c4553b6)" d="M 658.195804 756 
L 662.878322 756 
L 662.878322 756 
L 658.195804 756 
z
" style="fill:#99d8c9;stroke:#000000;stroke-linejoin:miter;stroke-width:1.4;"/>
   </g>
   <g id="patch_115">
    <path clip-path="url(#p131c4553b6)" d="M 662.878322 756 
L 667.560839 756 
L 667.560839 756 
L 662.878322 756 
z
" style="fill:#99d8c9;stroke:#000000;stroke-linejoin:miter;stroke-width:1.4;"/>
   </g>
   <g id="patch_116">
    <path clip-path="url(#p131c4553b6)" d="M 667.560839 756 
L 672.243357 756 
L 672.243357 756 
L 667.560839 756 
z
" style="fill:#99d8c9;stroke:#000000;stroke-linejoin:miter;stroke-width:1.4;"/>
   </g>
   <g id="patch_117">
    <path clip-path="url(#p131c4553b6)" d="M 672.243357 756 
L 676.925874 756 
L 676.925874 756 
L 672.243357 756 
z
" style="fill:#99d8c9;stroke:#000000;stroke-linejoin:miter;stroke-width:1.4;"/>
   </g>
   <g id="patch_118">
    <path clip-path="url(#p131c4553b6)" d="M 676.925874 756 
L 681.608392 756 
L 681.608392 756 
L 676.925874 756 
z
" style="fill:#99d8c9;stroke:#000000;stroke-linejoin:miter;stroke-width:1.4;"/>
   </g>
   <g id="patch_119">
    <path clip-path="url(#p131c4553b6)" d="M 681.608392 756 
L 686.290909 756 
L 686.290909 754.670722 
L 681.608392 754.670722 
z
" style="fill:#99d8c9;stroke:#000000;stroke-linejoin:miter;stroke-width:1.4;"/>
   </g>
   <g id="patch_120">
    <path clip-path="url(#p131c4553b6)" d="M 686.290909 756 
L 690.973427 756 
L 690.973427 756 
L 686.290909 756 
z
" style="fill:#99d8c9;stroke:#000000;stroke-linejoin:miter;stroke-width:1.4;"/>
   </g>
   <g id="patch_121">
    <path clip-path="url(#p131c4553b6)" d="M 690.973427 756 
L 695.655944 756 
L 695.655944 756 
L 690.973427 756 
z
" style="fill:#99d8c9;stroke:#000000;stroke-linejoin:miter;stroke-width:1.4;"/>
   </g>
   <g id="patch_122">
    <path clip-path="url(#p131c4553b6)" d="M 695.655944 756 
L 700.338462 756 
L 700.338462 756 
L 695.655944 756 
z
" style="fill:#99d8c9;stroke:#000000;stroke-linejoin:miter;stroke-width:1.4;"/>
   </g>
   <g id="patch_123">
    <path clip-path="url(#p131c4553b6)" d="M 700.338462 756 
L 705.020979 756 
L 705.020979 756 
L 700.338462 756 
z
" style="fill:#99d8c9;stroke:#000000;stroke-linejoin:miter;stroke-width:1.4;"/>
   </g>
   <g id="patch_124">
    <path clip-path="url(#p131c4553b6)" d="M 705.020979 756 
L 709.703497 756 
L 709.703497 756 
L 705.020979 756 
z
" style="fill:#99d8c9;stroke:#000000;stroke-linejoin:miter;stroke-width:1.4;"/>
   </g>
   <g id="patch_125">
    <path clip-path="url(#p131c4553b6)" d="M 709.703497 756 
L 714.386014 756 
L 714.386014 756 
L 709.703497 756 
z
" style="fill:#99d8c9;stroke:#000000;stroke-linejoin:miter;stroke-width:1.4;"/>
   </g>
   <g id="patch_126">
    <path clip-path="url(#p131c4553b6)" d="M 714.386014 756 
L 719.068531 756 
L 719.068531 756 
L 714.386014 756 
z
" style="fill:#99d8c9;stroke:#000000;stroke-linejoin:miter;stroke-width:1.4;"/>
   </g>
   <g id="patch_127">
    <path clip-path="url(#p131c4553b6)" d="M 719.068531 756 
L 723.751049 756 
L 723.751049 756 
L 719.068531 756 
z
" style="fill:#99d8c9;stroke:#000000;stroke-linejoin:miter;stroke-width:1.4;"/>
   </g>
   <g id="patch_128">
    <path clip-path="url(#p131c4553b6)" d="M 723.751049 756 
L 728.433566 756 
L 728.433566 756 
L 723.751049 756 
z
" style="fill:#99d8c9;stroke:#000000;stroke-linejoin:miter;stroke-width:1.4;"/>
   </g>
   <g id="patch_129">
    <path clip-path="url(#p131c4553b6)" d="M 728.433566 756 
L 733.116084 756 
L 733.116084 756 
L 728.433566 756 
z
" style="fill:#99d8c9;stroke:#000000;stroke-linejoin:miter;stroke-width:1.4;"/>
   </g>
   <g id="patch_130">
    <path clip-path="url(#p131c4553b6)" d="M 733.116084 756 
L 737.798601 756 
L 737.798601 756 
L 733.116084 756 
z
" style="fill:#99d8c9;stroke:#000000;stroke-linejoin:miter;stroke-width:1.4;"/>
   </g>
   <g id="patch_131">
    <path clip-path="url(#p131c4553b6)" d="M 737.798601 756 
L 742.481119 756 
L 742.481119 756 
L 737.798601 756 
z
" style="fill:#99d8c9;stroke:#000000;stroke-linejoin:miter;stroke-width:1.4;"/>
   </g>
   <g id="patch_132">
    <path clip-path="url(#p131c4553b6)" d="M 742.481119 756 
L 747.163636 756 
L 747.163636 754.670722 
L 742.481119 754.670722 
z
" style="fill:#99d8c9;stroke:#000000;stroke-linejoin:miter;stroke-width:1.4;"/>
   </g>
   <g id="matplotlib.axis_1">
    <g id="xtick_1">
     <g id="line2d_1">
      <defs>
       <path d="M 0 0 
L 0 3.5 
" id="m04448e556d" style="stroke:#000000;stroke-width:0.8;"/>
      </defs>
      <g>
       <use style="stroke:#000000;stroke-width:0.8;" x="222.612823" xlink:href="#m04448e556d" y="766"/>
      </g>
     </g>
     <g id="text_1">
      <!-- −1 -->
      <defs>
       <path d="M 10.59375 35.5 
L 73.1875 35.5 
L 73.1875 27.203125 
L 10.59375 27.203125 
z
" id="DejaVuSans-8722"/>
       <path d="M 12.40625 8.296875 
L 28.515625 8.296875 
L 28.515625 63.921875 
L 10.984375 60.40625 
L 10.984375 69.390625 
L 28.421875 72.90625 
L 38.28125 72.90625 
L 38.28125 8.296875 
L 54.390625 8.296875 
L 54.390625 0 
L 12.40625 0 
z
" id="DejaVuSans-49"/>
      </defs>
      <g transform="translate(215.241729 780.598438)scale(0.1 -0.1)">
       <use xlink:href="#DejaVuSans-8722"/>
       <use x="83.789062" xlink:href="#DejaVuSans-49"/>
      </g>
     </g>
    </g>
    <g id="xtick_2">
     <g id="line2d_2">
      <g>
       <use style="stroke:#000000;stroke-width:0.8;" x="363.821224" xlink:href="#m04448e556d" y="766"/>
      </g>
     </g>
     <g id="text_2">
      <!-- 0 -->
      <defs>
       <path d="M 31.78125 66.40625 
Q 24.171875 66.40625 20.328125 58.90625 
Q 16.5 51.421875 16.5 36.375 
Q 16.5 21.390625 20.328125 13.890625 
Q 24.171875 6.390625 31.78125 6.390625 
Q 39.453125 6.390625 43.28125 13.890625 
Q 47.125 21.390625 47.125 36.375 
Q 47.125 51.421875 43.28125 58.90625 
Q 39.453125 66.40625 31.78125 66.40625 
z
M 31.78125 74.21875 
Q 44.046875 74.21875 50.515625 64.515625 
Q 56.984375 54.828125 56.984375 36.375 
Q 56.984375 17.96875 50.515625 8.265625 
Q 44.046875 -1.421875 31.78125 -1.421875 
Q 19.53125 -1.421875 13.0625 8.265625 
Q 6.59375 17.96875 6.59375 36.375 
Q 6.59375 54.828125 13.0625 64.515625 
Q 19.53125 74.21875 31.78125 74.21875 
z
" id="DejaVuSans-48"/>
      </defs>
      <g transform="translate(360.639974 780.598438)scale(0.1 -0.1)">
       <use xlink:href="#DejaVuSans-48"/>
      </g>
     </g>
    </g>
    <g id="xtick_3">
     <g id="line2d_3">
      <g>
       <use style="stroke:#000000;stroke-width:0.8;" x="505.029625" xlink:href="#m04448e556d" y="766"/>
      </g>
     </g>
     <g id="text_3">
      <!-- 1 -->
      <g transform="translate(501.848375 780.598438)scale(0.1 -0.1)">
       <use xlink:href="#DejaVuSans-49"/>
      </g>
     </g>
    </g>
    <g id="xtick_4">
     <g id="line2d_4">
      <g>
       <use style="stroke:#000000;stroke-width:0.8;" x="646.238026" xlink:href="#m04448e556d" y="766"/>
      </g>
     </g>
     <g id="text_4">
      <!-- 2 -->
      <defs>
       <path d="M 19.1875 8.296875 
L 53.609375 8.296875 
L 53.609375 0 
L 7.328125 0 
L 7.328125 8.296875 
Q 12.9375 14.109375 22.625 23.890625 
Q 32.328125 33.6875 34.8125 36.53125 
Q 39.546875 41.84375 41.421875 45.53125 
Q 43.3125 49.21875 43.3125 52.78125 
Q 43.3125 58.59375 39.234375 62.25 
Q 35.15625 65.921875 28.609375 65.921875 
Q 23.96875 65.921875 18.8125 64.3125 
Q 13.671875 62.703125 7.8125 59.421875 
L 7.8125 69.390625 
Q 13.765625 71.78125 18.9375 73 
Q 24.125 74.21875 28.421875 74.21875 
Q 39.75 74.21875 46.484375 68.546875 
Q 53.21875 62.890625 53.21875 53.421875 
Q 53.21875 48.921875 51.53125 44.890625 
Q 49.859375 40.875 45.40625 35.40625 
Q 44.1875 33.984375 37.640625 27.21875 
Q 31.109375 20.453125 19.1875 8.296875 
z
" id="DejaVuSans-50"/>
      </defs>
      <g transform="translate(643.056776 780.598438)scale(0.1 -0.1)">
       <use xlink:href="#DejaVuSans-50"/>
      </g>
     </g>
    </g>
    <g id="text_5">
     <!-- Normalized Ratio L/H -->
     <defs>
      <path d="M 9.8125 72.90625 
L 23.09375 72.90625 
L 55.421875 11.921875 
L 55.421875 72.90625 
L 64.984375 72.90625 
L 64.984375 0 
L 51.703125 0 
L 19.390625 60.984375 
L 19.390625 0 
L 9.8125 0 
z
" id="DejaVuSans-78"/>
      <path d="M 30.609375 48.390625 
Q 23.390625 48.390625 19.1875 42.75 
Q 14.984375 37.109375 14.984375 27.296875 
Q 14.984375 17.484375 19.15625 11.84375 
Q 23.34375 6.203125 30.609375 6.203125 
Q 37.796875 6.203125 41.984375 11.859375 
Q 46.1875 17.53125 46.1875 27.296875 
Q 46.1875 37.015625 41.984375 42.703125 
Q 37.796875 48.390625 30.609375 48.390625 
z
M 30.609375 56 
Q 42.328125 56 49.015625 48.375 
Q 55.71875 40.765625 55.71875 27.296875 
Q 55.71875 13.875 49.015625 6.21875 
Q 42.328125 -1.421875 30.609375 -1.421875 
Q 18.84375 -1.421875 12.171875 6.21875 
Q 5.515625 13.875 5.515625 27.296875 
Q 5.515625 40.765625 12.171875 48.375 
Q 18.84375 56 30.609375 56 
z
" id="DejaVuSans-111"/>
      <path d="M 41.109375 46.296875 
Q 39.59375 47.171875 37.8125 47.578125 
Q 36.03125 48 33.890625 48 
Q 26.265625 48 22.1875 43.046875 
Q 18.109375 38.09375 18.109375 28.8125 
L 18.109375 0 
L 9.078125 0 
L 9.078125 54.6875 
L 18.109375 54.6875 
L 18.109375 46.1875 
Q 20.953125 51.171875 25.484375 53.578125 
Q 30.03125 56 36.53125 56 
Q 37.453125 56 38.578125 55.875 
Q 39.703125 55.765625 41.0625 55.515625 
z
" id="DejaVuSans-114"/>
      <path d="M 52 44.1875 
Q 55.375 50.25 60.0625 53.125 
Q 64.75 56 71.09375 56 
Q 79.640625 56 84.28125 50.015625 
Q 88.921875 44.046875 88.921875 33.015625 
L 88.921875 0 
L 79.890625 0 
L 79.890625 32.71875 
Q 79.890625 40.578125 77.09375 44.375 
Q 74.3125 48.1875 68.609375 48.1875 
Q 61.625 48.1875 57.5625 43.546875 
Q 53.515625 38.921875 53.515625 30.90625 
L 53.515625 0 
L 44.484375 0 
L 44.484375 32.71875 
Q 44.484375 40.625 41.703125 44.40625 
Q 38.921875 48.1875 33.109375 48.1875 
Q 26.21875 48.1875 22.15625 43.53125 
Q 18.109375 38.875 18.109375 30.90625 
L 18.109375 0 
L 9.078125 0 
L 9.078125 54.6875 
L 18.109375 54.6875 
L 18.109375 46.1875 
Q 21.1875 51.21875 25.484375 53.609375 
Q 29.78125 56 35.6875 56 
Q 41.65625 56 45.828125 52.96875 
Q 50 49.953125 52 44.1875 
z
" id="DejaVuSans-109"/>
      <path d="M 34.28125 27.484375 
Q 23.390625 27.484375 19.1875 25 
Q 14.984375 22.515625 14.984375 16.5 
Q 14.984375 11.71875 18.140625 8.90625 
Q 21.296875 6.109375 26.703125 6.109375 
Q 34.1875 6.109375 38.703125 11.40625 
Q 43.21875 16.703125 43.21875 25.484375 
L 43.21875 27.484375 
z
M 52.203125 31.203125 
L 52.203125 0 
L 43.21875 0 
L 43.21875 8.296875 
Q 40.140625 3.328125 35.546875 0.953125 
Q 30.953125 -1.421875 24.3125 -1.421875 
Q 15.921875 -1.421875 10.953125 3.296875 
Q 6 8.015625 6 15.921875 
Q 6 25.140625 12.171875 29.828125 
Q 18.359375 34.515625 30.609375 34.515625 
L 43.21875 34.515625 
L 43.21875 35.40625 
Q 43.21875 41.609375 39.140625 45 
Q 35.0625 48.390625 27.6875 48.390625 
Q 23 48.390625 18.546875 47.265625 
Q 14.109375 46.140625 10.015625 43.890625 
L 10.015625 52.203125 
Q 14.9375 54.109375 19.578125 55.046875 
Q 24.21875 56 28.609375 56 
Q 40.484375 56 46.34375 49.84375 
Q 52.203125 43.703125 52.203125 31.203125 
z
" id="DejaVuSans-97"/>
      <path d="M 9.421875 75.984375 
L 18.40625 75.984375 
L 18.40625 0 
L 9.421875 0 
z
" id="DejaVuSans-108"/>
      <path d="M 9.421875 54.6875 
L 18.40625 54.6875 
L 18.40625 0 
L 9.421875 0 
z
M 9.421875 75.984375 
L 18.40625 75.984375 
L 18.40625 64.59375 
L 9.421875 64.59375 
z
" id="DejaVuSans-105"/>
      <path d="M 5.515625 54.6875 
L 48.1875 54.6875 
L 48.1875 46.484375 
L 14.40625 7.171875 
L 48.1875 7.171875 
L 48.1875 0 
L 4.296875 0 
L 4.296875 8.203125 
L 38.09375 47.515625 
L 5.515625 47.515625 
z
" id="DejaVuSans-122"/>
      <path d="M 56.203125 29.59375 
L 56.203125 25.203125 
L 14.890625 25.203125 
Q 15.484375 15.921875 20.484375 11.0625 
Q 25.484375 6.203125 34.421875 6.203125 
Q 39.59375 6.203125 44.453125 7.46875 
Q 49.3125 8.734375 54.109375 11.28125 
L 54.109375 2.78125 
Q 49.265625 0.734375 44.1875 -0.34375 
Q 39.109375 -1.421875 33.890625 -1.421875 
Q 20.796875 -1.421875 13.15625 6.1875 
Q 5.515625 13.8125 5.515625 26.8125 
Q 5.515625 40.234375 12.765625 48.109375 
Q 20.015625 56 32.328125 56 
Q 43.359375 56 49.78125 48.890625 
Q 56.203125 41.796875 56.203125 29.59375 
z
M 47.21875 32.234375 
Q 47.125 39.59375 43.09375 43.984375 
Q 39.0625 48.390625 32.421875 48.390625 
Q 24.90625 48.390625 20.390625 44.140625 
Q 15.875 39.890625 15.1875 32.171875 
z
" id="DejaVuSans-101"/>
      <path d="M 45.40625 46.390625 
L 45.40625 75.984375 
L 54.390625 75.984375 
L 54.390625 0 
L 45.40625 0 
L 45.40625 8.203125 
Q 42.578125 3.328125 38.25 0.953125 
Q 33.9375 -1.421875 27.875 -1.421875 
Q 17.96875 -1.421875 11.734375 6.484375 
Q 5.515625 14.40625 5.515625 27.296875 
Q 5.515625 40.1875 11.734375 48.09375 
Q 17.96875 56 27.875 56 
Q 33.9375 56 38.25 53.625 
Q 42.578125 51.265625 45.40625 46.390625 
z
M 14.796875 27.296875 
Q 14.796875 17.390625 18.875 11.75 
Q 22.953125 6.109375 30.078125 6.109375 
Q 37.203125 6.109375 41.296875 11.75 
Q 45.40625 17.390625 45.40625 27.296875 
Q 45.40625 37.203125 41.296875 42.84375 
Q 37.203125 48.484375 30.078125 48.484375 
Q 22.953125 48.484375 18.875 42.84375 
Q 14.796875 37.203125 14.796875 27.296875 
z
" id="DejaVuSans-100"/>
      <path id="DejaVuSans-32"/>
      <path d="M 44.390625 34.1875 
Q 47.5625 33.109375 50.5625 29.59375 
Q 53.5625 26.078125 56.59375 19.921875 
L 66.609375 0 
L 56 0 
L 46.6875 18.703125 
Q 43.0625 26.03125 39.671875 28.421875 
Q 36.28125 30.8125 30.421875 30.8125 
L 19.671875 30.8125 
L 19.671875 0 
L 9.8125 0 
L 9.8125 72.90625 
L 32.078125 72.90625 
Q 44.578125 72.90625 50.734375 67.671875 
Q 56.890625 62.453125 56.890625 51.90625 
Q 56.890625 45.015625 53.6875 40.46875 
Q 50.484375 35.9375 44.390625 34.1875 
z
M 19.671875 64.796875 
L 19.671875 38.921875 
L 32.078125 38.921875 
Q 39.203125 38.921875 42.84375 42.21875 
Q 46.484375 45.515625 46.484375 51.90625 
Q 46.484375 58.296875 42.84375 61.546875 
Q 39.203125 64.796875 32.078125 64.796875 
z
" id="DejaVuSans-82"/>
      <path d="M 18.3125 70.21875 
L 18.3125 54.6875 
L 36.8125 54.6875 
L 36.8125 47.703125 
L 18.3125 47.703125 
L 18.3125 18.015625 
Q 18.3125 11.328125 20.140625 9.421875 
Q 21.96875 7.515625 27.59375 7.515625 
L 36.8125 7.515625 
L 36.8125 0 
L 27.59375 0 
Q 17.1875 0 13.234375 3.875 
Q 9.28125 7.765625 9.28125 18.015625 
L 9.28125 47.703125 
L 2.6875 47.703125 
L 2.6875 54.6875 
L 9.28125 54.6875 
L 9.28125 70.21875 
z
" id="DejaVuSans-116"/>
      <path d="M 9.8125 72.90625 
L 19.671875 72.90625 
L 19.671875 8.296875 
L 55.171875 8.296875 
L 55.171875 0 
L 9.8125 0 
z
" id="DejaVuSans-76"/>
      <path d="M 25.390625 72.90625 
L 33.6875 72.90625 
L 8.296875 -9.28125 
L 0 -9.28125 
z
" id="DejaVuSans-47"/>
      <path d="M 9.8125 72.90625 
L 19.671875 72.90625 
L 19.671875 43.015625 
L 55.515625 43.015625 
L 55.515625 72.90625 
L 65.375 72.90625 
L 65.375 0 
L 55.515625 0 
L 55.515625 34.71875 
L 19.671875 34.71875 
L 19.671875 0 
L 9.8125 0 
z
" id="DejaVuSans-72"/>
     </defs>
     <g transform="translate(390.003906 794.276562)scale(0.1 -0.1)">
      <use xlink:href="#DejaVuSans-78"/>
      <use x="74.804688" xlink:href="#DejaVuSans-111"/>
      <use x="135.986328" xlink:href="#DejaVuSans-114"/>
      <use x="177.083984" xlink:href="#DejaVuSans-109"/>
      <use x="274.496094" xlink:href="#DejaVuSans-97"/>
      <use x="335.775391" xlink:href="#DejaVuSans-108"/>
      <use x="363.558594" xlink:href="#DejaVuSans-105"/>
      <use x="391.341797" xlink:href="#DejaVuSans-122"/>
      <use x="443.832031" xlink:href="#DejaVuSans-101"/>
      <use x="505.355469" xlink:href="#DejaVuSans-100"/>
      <use x="568.832031" xlink:href="#DejaVuSans-32"/>
      <use x="600.619141" xlink:href="#DejaVuSans-82"/>
      <use x="670.070312" xlink:href="#DejaVuSans-97"/>
      <use x="731.349609" xlink:href="#DejaVuSans-116"/>
      <use x="770.558594" xlink:href="#DejaVuSans-105"/>
      <use x="798.341797" xlink:href="#DejaVuSans-111"/>
      <use x="859.523438" xlink:href="#DejaVuSans-32"/>
      <use x="891.310547" xlink:href="#DejaVuSans-76"/>
      <use x="947.023438" xlink:href="#DejaVuSans-47"/>
      <use x="980.714844" xlink:href="#DejaVuSans-72"/>
     </g>
    </g>
   </g>
   <g id="matplotlib.axis_2">
    <g id="ytick_1">
     <g id="line2d_5">
      <defs>
       <path d="M 0 0 
L -3.5 0 
" id="mb5e2afd870" style="stroke:#000000;stroke-width:0.8;"/>
      </defs>
      <g>
       <use style="stroke:#000000;stroke-width:0.8;" x="98" xlink:href="#mb5e2afd870" y="756"/>
      </g>
     </g>
     <g id="text_6">
      <!-- 0 -->
      <g transform="translate(84.6375 759.799219)scale(0.1 -0.1)">
       <use xlink:href="#DejaVuSans-48"/>
      </g>
     </g>
    </g>
    <g id="ytick_2">
     <g id="line2d_6">
      <g>
       <use style="stroke:#000000;stroke-width:0.8;" x="98" xlink:href="#mb5e2afd870" y="623.072197"/>
      </g>
     </g>
     <g id="text_7">
      <!-- 100 -->
      <g transform="translate(71.9125 626.871415)scale(0.1 -0.1)">
       <use xlink:href="#DejaVuSans-49"/>
       <use x="63.623047" xlink:href="#DejaVuSans-48"/>
       <use x="127.246094" xlink:href="#DejaVuSans-48"/>
      </g>
     </g>
    </g>
    <g id="ytick_3">
     <g id="line2d_7">
      <g>
       <use style="stroke:#000000;stroke-width:0.8;" x="98" xlink:href="#mb5e2afd870" y="490.144393"/>
      </g>
     </g>
     <g id="text_8">
      <!-- 200 -->
      <g transform="translate(71.9125 493.943612)scale(0.1 -0.1)">
       <use xlink:href="#DejaVuSans-50"/>
       <use x="63.623047" xlink:href="#DejaVuSans-48"/>
       <use x="127.246094" xlink:href="#DejaVuSans-48"/>
      </g>
     </g>
    </g>
    <g id="ytick_4">
     <g id="line2d_8">
      <g>
       <use style="stroke:#000000;stroke-width:0.8;" x="98" xlink:href="#mb5e2afd870" y="357.21659"/>
      </g>
     </g>
     <g id="text_9">
      <!-- 300 -->
      <defs>
       <path d="M 40.578125 39.3125 
Q 47.65625 37.796875 51.625 33 
Q 55.609375 28.21875 55.609375 21.1875 
Q 55.609375 10.40625 48.1875 4.484375 
Q 40.765625 -1.421875 27.09375 -1.421875 
Q 22.515625 -1.421875 17.65625 -0.515625 
Q 12.796875 0.390625 7.625 2.203125 
L 7.625 11.71875 
Q 11.71875 9.328125 16.59375 8.109375 
Q 21.484375 6.890625 26.8125 6.890625 
Q 36.078125 6.890625 40.9375 10.546875 
Q 45.796875 14.203125 45.796875 21.1875 
Q 45.796875 27.640625 41.28125 31.265625 
Q 36.765625 34.90625 28.71875 34.90625 
L 20.21875 34.90625 
L 20.21875 43.015625 
L 29.109375 43.015625 
Q 36.375 43.015625 40.234375 45.921875 
Q 44.09375 48.828125 44.09375 54.296875 
Q 44.09375 59.90625 40.109375 62.90625 
Q 36.140625 65.921875 28.71875 65.921875 
Q 24.65625 65.921875 20.015625 65.03125 
Q 15.375 64.15625 9.8125 62.3125 
L 9.8125 71.09375 
Q 15.4375 72.65625 20.34375 73.4375 
Q 25.25 74.21875 29.59375 74.21875 
Q 40.828125 74.21875 47.359375 69.109375 
Q 53.90625 64.015625 53.90625 55.328125 
Q 53.90625 49.265625 50.4375 45.09375 
Q 46.96875 40.921875 40.578125 39.3125 
z
" id="DejaVuSans-51"/>
      </defs>
      <g transform="translate(71.9125 361.015809)scale(0.1 -0.1)">
       <use xlink:href="#DejaVuSans-51"/>
       <use x="63.623047" xlink:href="#DejaVuSans-48"/>
       <use x="127.246094" xlink:href="#DejaVuSans-48"/>
      </g>
     </g>
    </g>
    <g id="ytick_5">
     <g id="line2d_9">
      <g>
       <use style="stroke:#000000;stroke-width:0.8;" x="98" xlink:href="#mb5e2afd870" y="224.288787"/>
      </g>
     </g>
     <g id="text_10">
      <!-- 400 -->
      <defs>
       <path d="M 37.796875 64.3125 
L 12.890625 25.390625 
L 37.796875 25.390625 
z
M 35.203125 72.90625 
L 47.609375 72.90625 
L 47.609375 25.390625 
L 58.015625 25.390625 
L 58.015625 17.1875 
L 47.609375 17.1875 
L 47.609375 0 
L 37.796875 0 
L 37.796875 17.1875 
L 4.890625 17.1875 
L 4.890625 26.703125 
z
" id="DejaVuSans-52"/>
      </defs>
      <g transform="translate(71.9125 228.088006)scale(0.1 -0.1)">
       <use xlink:href="#DejaVuSans-52"/>
       <use x="63.623047" xlink:href="#DejaVuSans-48"/>
       <use x="127.246094" xlink:href="#DejaVuSans-48"/>
      </g>
     </g>
    </g>
    <g id="text_11">
     <!-- Frequency -->
     <defs>
      <path d="M 9.8125 72.90625 
L 51.703125 72.90625 
L 51.703125 64.59375 
L 19.671875 64.59375 
L 19.671875 43.109375 
L 48.578125 43.109375 
L 48.578125 34.8125 
L 19.671875 34.8125 
L 19.671875 0 
L 9.8125 0 
z
" id="DejaVuSans-70"/>
      <path d="M 14.796875 27.296875 
Q 14.796875 17.390625 18.875 11.75 
Q 22.953125 6.109375 30.078125 6.109375 
Q 37.203125 6.109375 41.296875 11.75 
Q 45.40625 17.390625 45.40625 27.296875 
Q 45.40625 37.203125 41.296875 42.84375 
Q 37.203125 48.484375 30.078125 48.484375 
Q 22.953125 48.484375 18.875 42.84375 
Q 14.796875 37.203125 14.796875 27.296875 
z
M 45.40625 8.203125 
Q 42.578125 3.328125 38.25 0.953125 
Q 33.9375 -1.421875 27.875 -1.421875 
Q 17.96875 -1.421875 11.734375 6.484375 
Q 5.515625 14.40625 5.515625 27.296875 
Q 5.515625 40.1875 11.734375 48.09375 
Q 17.96875 56 27.875 56 
Q 33.9375 56 38.25 53.625 
Q 42.578125 51.265625 45.40625 46.390625 
L 45.40625 54.6875 
L 54.390625 54.6875 
L 54.390625 -20.796875 
L 45.40625 -20.796875 
z
" id="DejaVuSans-113"/>
      <path d="M 8.5 21.578125 
L 8.5 54.6875 
L 17.484375 54.6875 
L 17.484375 21.921875 
Q 17.484375 14.15625 20.5 10.265625 
Q 23.53125 6.390625 29.59375 6.390625 
Q 36.859375 6.390625 41.078125 11.03125 
Q 45.3125 15.671875 45.3125 23.6875 
L 45.3125 54.6875 
L 54.296875 54.6875 
L 54.296875 0 
L 45.3125 0 
L 45.3125 8.40625 
Q 42.046875 3.421875 37.71875 1 
Q 33.40625 -1.421875 27.6875 -1.421875 
Q 18.265625 -1.421875 13.375 4.4375 
Q 8.5 10.296875 8.5 21.578125 
z
M 31.109375 56 
z
" id="DejaVuSans-117"/>
      <path d="M 54.890625 33.015625 
L 54.890625 0 
L 45.90625 0 
L 45.90625 32.71875 
Q 45.90625 40.484375 42.875 44.328125 
Q 39.84375 48.1875 33.796875 48.1875 
Q 26.515625 48.1875 22.3125 43.546875 
Q 18.109375 38.921875 18.109375 30.90625 
L 18.109375 0 
L 9.078125 0 
L 9.078125 54.6875 
L 18.109375 54.6875 
L 18.109375 46.1875 
Q 21.34375 51.125 25.703125 53.5625 
Q 30.078125 56 35.796875 56 
Q 45.21875 56 50.046875 50.171875 
Q 54.890625 44.34375 54.890625 33.015625 
z
" id="DejaVuSans-110"/>
      <path d="M 48.78125 52.59375 
L 48.78125 44.1875 
Q 44.96875 46.296875 41.140625 47.34375 
Q 37.3125 48.390625 33.40625 48.390625 
Q 24.65625 48.390625 19.8125 42.84375 
Q 14.984375 37.3125 14.984375 27.296875 
Q 14.984375 17.28125 19.8125 11.734375 
Q 24.65625 6.203125 33.40625 6.203125 
Q 37.3125 6.203125 41.140625 7.25 
Q 44.96875 8.296875 48.78125 10.40625 
L 48.78125 2.09375 
Q 45.015625 0.34375 40.984375 -0.53125 
Q 36.96875 -1.421875 32.421875 -1.421875 
Q 20.0625 -1.421875 12.78125 6.34375 
Q 5.515625 14.109375 5.515625 27.296875 
Q 5.515625 40.671875 12.859375 48.328125 
Q 20.21875 56 33.015625 56 
Q 37.15625 56 41.109375 55.140625 
Q 45.0625 54.296875 48.78125 52.59375 
z
" id="DejaVuSans-99"/>
      <path d="M 32.171875 -5.078125 
Q 28.375 -14.84375 24.75 -17.8125 
Q 21.140625 -20.796875 15.09375 -20.796875 
L 7.90625 -20.796875 
L 7.90625 -13.28125 
L 13.1875 -13.28125 
Q 16.890625 -13.28125 18.9375 -11.515625 
Q 21 -9.765625 23.484375 -3.21875 
L 25.09375 0.875 
L 2.984375 54.6875 
L 12.5 54.6875 
L 29.59375 11.921875 
L 46.6875 54.6875 
L 56.203125 54.6875 
z
" id="DejaVuSans-121"/>
     </defs>
     <g transform="translate(65.832812 456.137656)rotate(-90)scale(0.1 -0.1)">
      <use xlink:href="#DejaVuSans-70"/>
      <use x="57.410156" xlink:href="#DejaVuSans-114"/>
      <use x="98.492188" xlink:href="#DejaVuSans-101"/>
      <use x="160.015625" xlink:href="#DejaVuSans-113"/>
      <use x="223.492188" xlink:href="#DejaVuSans-117"/>
      <use x="286.871094" xlink:href="#DejaVuSans-101"/>
      <use x="348.394531" xlink:href="#DejaVuSans-110"/>
      <use x="411.773438" xlink:href="#DejaVuSans-99"/>
      <use x="466.753906" xlink:href="#DejaVuSans-121"/>
     </g>
    </g>
   </g>
   <g id="patch_133">
    <path d="M 98 756 
L 98 134.742857 
" style="fill:none;stroke:#000000;stroke-linecap:square;stroke-linejoin:miter;stroke-width:0.8;"/>
   </g>
   <g id="patch_134">
    <path d="M 777.6 756 
L 777.6 103.68 
" style="fill:none;"/>
   </g>
   <g id="patch_135">
    <path d="M 138.436364 766 
L 747.163636 766 
" style="fill:none;stroke:#000000;stroke-linecap:square;stroke-linejoin:miter;stroke-width:0.8;"/>
   </g>
   <g id="patch_136">
    <path d="M 108 103.68 
L 777.6 103.68 
" style="fill:none;"/>
   </g>
   <g id="text_12">
    <!-- MYH10 -->
    <defs>
     <path d="M 9.1875 72.90625 
L 33.109375 72.90625 
L 49.703125 33.890625 
L 66.40625 72.90625 
L 90.28125 72.90625 
L 90.28125 0 
L 72.515625 0 
L 72.515625 53.328125 
L 55.71875 14.015625 
L 43.796875 14.015625 
L 27 53.328125 
L 27 0 
L 9.1875 0 
z
" id="DejaVuSans-Bold-77"/>
     <path d="M -0.984375 72.90625 
L 19.578125 72.90625 
L 36.1875 46.921875 
L 52.78125 72.90625 
L 73.390625 72.90625 
L 45.609375 30.71875 
L 45.609375 0 
L 26.8125 0 
L 26.8125 30.71875 
z
" id="DejaVuSans-Bold-89"/>
     <path d="M 9.1875 72.90625 
L 27.984375 72.90625 
L 27.984375 45.125 
L 55.71875 45.125 
L 55.71875 72.90625 
L 74.515625 72.90625 
L 74.515625 0 
L 55.71875 0 
L 55.71875 30.90625 
L 27.984375 30.90625 
L 27.984375 0 
L 9.1875 0 
z
" id="DejaVuSans-Bold-72"/>
     <path d="M 11.71875 12.984375 
L 28.328125 12.984375 
L 28.328125 60.109375 
L 11.28125 56.59375 
L 11.28125 69.390625 
L 28.21875 72.90625 
L 46.09375 72.90625 
L 46.09375 12.984375 
L 62.703125 12.984375 
L 62.703125 0 
L 11.71875 0 
z
" id="DejaVuSans-Bold-49"/>
     <path d="M 46 36.53125 
Q 46 50.203125 43.4375 55.78125 
Q 40.875 61.375 34.8125 61.375 
Q 28.765625 61.375 26.171875 55.78125 
Q 23.578125 50.203125 23.578125 36.53125 
Q 23.578125 22.703125 26.171875 17.03125 
Q 28.765625 11.375 34.8125 11.375 
Q 40.828125 11.375 43.40625 17.03125 
Q 46 22.703125 46 36.53125 
z
M 64.796875 36.375 
Q 64.796875 18.265625 56.984375 8.421875 
Q 49.171875 -1.421875 34.8125 -1.421875 
Q 20.40625 -1.421875 12.59375 8.421875 
Q 4.78125 18.265625 4.78125 36.375 
Q 4.78125 54.546875 12.59375 64.375 
Q 20.40625 74.21875 34.8125 74.21875 
Q 49.171875 74.21875 56.984375 64.375 
Q 64.796875 54.546875 64.796875 36.375 
z
" id="DejaVuSans-Bold-48"/>
    </defs>
    <g style="fill:#23231a;" transform="translate(432.539547 590.68739)rotate(-90)scale(0.12 -0.12)">
     <use xlink:href="#DejaVuSans-Bold-77"/>
     <use x="99.511719" xlink:href="#DejaVuSans-Bold-89"/>
     <use x="171.923828" xlink:href="#DejaVuSans-Bold-72"/>
     <use x="255.615234" xlink:href="#DejaVuSans-Bold-49"/>
     <use x="325.195312" xlink:href="#DejaVuSans-Bold-48"/>
    </g>
   </g>
   <g id="text_13">
    <!-- MYO1B -->
    <defs>
     <path d="M 42.484375 60.59375 
Q 33.890625 60.59375 29.15625 54.25 
Q 24.421875 47.90625 24.421875 36.375 
Q 24.421875 24.90625 29.15625 18.546875 
Q 33.890625 12.203125 42.484375 12.203125 
Q 51.125 12.203125 55.859375 18.546875 
Q 60.59375 24.90625 60.59375 36.375 
Q 60.59375 47.90625 55.859375 54.25 
Q 51.125 60.59375 42.484375 60.59375 
z
M 42.484375 74.21875 
Q 60.0625 74.21875 70.015625 64.15625 
Q 79.984375 54.109375 79.984375 36.375 
Q 79.984375 18.703125 70.015625 8.640625 
Q 60.0625 -1.421875 42.484375 -1.421875 
Q 24.953125 -1.421875 14.96875 8.640625 
Q 4.984375 18.703125 4.984375 36.375 
Q 4.984375 54.109375 14.96875 64.15625 
Q 24.953125 74.21875 42.484375 74.21875 
z
" id="DejaVuSans-Bold-79"/>
     <path d="M 38.375 44.671875 
Q 42.828125 44.671875 45.109375 46.625 
Q 47.40625 48.578125 47.40625 52.390625 
Q 47.40625 56.15625 45.109375 58.125 
Q 42.828125 60.109375 38.375 60.109375 
L 27.984375 60.109375 
L 27.984375 44.671875 
z
M 39.015625 12.796875 
Q 44.671875 12.796875 47.53125 15.1875 
Q 50.390625 17.578125 50.390625 22.40625 
Q 50.390625 27.15625 47.5625 29.515625 
Q 44.734375 31.890625 39.015625 31.890625 
L 27.984375 31.890625 
L 27.984375 12.796875 
z
M 56.5 39.015625 
Q 62.546875 37.25 65.859375 32.515625 
Q 69.1875 27.78125 69.1875 20.90625 
Q 69.1875 10.359375 62.0625 5.171875 
Q 54.9375 0 40.375 0 
L 9.1875 0 
L 9.1875 72.90625 
L 37.40625 72.90625 
Q 52.59375 72.90625 59.40625 68.3125 
Q 66.21875 63.71875 66.21875 53.609375 
Q 66.21875 48.296875 63.71875 44.5625 
Q 61.234375 40.828125 56.5 39.015625 
z
" id="DejaVuSans-Bold-66"/>
    </defs>
    <g style="fill:#23231a;" transform="translate(422.665747 591.638015)rotate(-90)scale(0.12 -0.12)">
     <use xlink:href="#DejaVuSans-Bold-77"/>
     <use x="99.511719" xlink:href="#DejaVuSans-Bold-89"/>
     <use x="171.876953" xlink:href="#DejaVuSans-Bold-79"/>
     <use x="256.886719" xlink:href="#DejaVuSans-Bold-49"/>
     <use x="326.466797" xlink:href="#DejaVuSans-Bold-66"/>
    </g>
   </g>
   <g id="text_14">
    <!-- SSX2IP -->
    <defs>
     <path d="M 59.90625 70.609375 
L 59.90625 55.171875 
Q 53.90625 57.859375 48.1875 59.21875 
Q 42.484375 60.59375 37.40625 60.59375 
Q 30.671875 60.59375 27.4375 58.734375 
Q 24.21875 56.890625 24.21875 52.984375 
Q 24.21875 50.046875 26.390625 48.40625 
Q 28.5625 46.78125 34.28125 45.609375 
L 42.28125 44 
Q 54.4375 41.546875 59.5625 36.5625 
Q 64.703125 31.59375 64.703125 22.40625 
Q 64.703125 10.359375 57.546875 4.46875 
Q 50.390625 -1.421875 35.6875 -1.421875 
Q 28.765625 -1.421875 21.78125 -0.09375 
Q 14.796875 1.21875 7.8125 3.8125 
L 7.8125 19.671875 
Q 14.796875 15.96875 21.3125 14.078125 
Q 27.828125 12.203125 33.890625 12.203125 
Q 40.046875 12.203125 43.3125 14.25 
Q 46.578125 16.3125 46.578125 20.125 
Q 46.578125 23.53125 44.359375 25.390625 
Q 42.140625 27.25 35.5 28.71875 
L 28.21875 30.328125 
Q 17.28125 32.671875 12.21875 37.796875 
Q 7.171875 42.921875 7.171875 51.609375 
Q 7.171875 62.5 14.203125 68.359375 
Q 21.234375 74.21875 34.421875 74.21875 
Q 40.4375 74.21875 46.78125 73.3125 
Q 53.125 72.40625 59.90625 70.609375 
z
" id="DejaVuSans-Bold-83"/>
     <path d="M 49.8125 37.203125 
L 75.09375 0 
L 55.515625 0 
L 38.484375 24.90625 
L 21.578125 0 
L 1.90625 0 
L 27.203125 37.203125 
L 2.875 72.90625 
L 22.515625 72.90625 
L 38.484375 49.421875 
L 54.390625 72.90625 
L 74.125 72.90625 
z
" id="DejaVuSans-Bold-88"/>
     <path d="M 28.8125 13.8125 
L 60.890625 13.8125 
L 60.890625 0 
L 7.90625 0 
L 7.90625 13.8125 
L 34.515625 37.3125 
Q 38.09375 40.53125 39.796875 43.609375 
Q 41.5 46.6875 41.5 50 
Q 41.5 55.125 38.0625 58.25 
Q 34.625 61.375 28.90625 61.375 
Q 24.515625 61.375 19.28125 59.5 
Q 14.0625 57.625 8.109375 53.90625 
L 8.109375 69.921875 
Q 14.453125 72.015625 20.65625 73.109375 
Q 26.859375 74.21875 32.8125 74.21875 
Q 45.90625 74.21875 53.15625 68.453125 
Q 60.40625 62.703125 60.40625 52.390625 
Q 60.40625 46.4375 57.328125 41.28125 
Q 54.25 36.140625 44.390625 27.484375 
z
" id="DejaVuSans-Bold-50"/>
     <path d="M 9.1875 72.90625 
L 27.984375 72.90625 
L 27.984375 0 
L 9.1875 0 
z
" id="DejaVuSans-Bold-73"/>
     <path d="M 9.1875 72.90625 
L 40.375 72.90625 
Q 54.296875 72.90625 61.734375 66.71875 
Q 69.1875 60.546875 69.1875 49.125 
Q 69.1875 37.640625 61.734375 31.46875 
Q 54.296875 25.296875 40.375 25.296875 
L 27.984375 25.296875 
L 27.984375 0 
L 9.1875 0 
z
M 27.984375 59.28125 
L 27.984375 38.921875 
L 38.375 38.921875 
Q 43.84375 38.921875 46.828125 41.578125 
Q 49.8125 44.234375 49.8125 49.125 
Q 49.8125 54 46.828125 56.640625 
Q 43.84375 59.28125 38.375 59.28125 
z
" id="DejaVuSans-Bold-80"/>
    </defs>
    <g style="fill:#23231a;" transform="translate(492.552933 591.45239)rotate(-90)scale(0.12 -0.12)">
     <use xlink:href="#DejaVuSans-Bold-83"/>
     <use x="71.958984" xlink:href="#DejaVuSans-Bold-83"/>
     <use x="143.980469" xlink:href="#DejaVuSans-Bold-88"/>
     <use x="221.080078" xlink:href="#DejaVuSans-Bold-50"/>
     <use x="290.660156" xlink:href="#DejaVuSans-Bold-73"/>
     <use x="327.867188" xlink:href="#DejaVuSans-Bold-80"/>
    </g>
   </g>
   <g id="text_15">
    <!-- PFN2 -->
    <defs>
     <path d="M 9.1875 72.90625 
L 59.90625 72.90625 
L 59.90625 58.6875 
L 27.984375 58.6875 
L 27.984375 45.125 
L 58.015625 45.125 
L 58.015625 30.90625 
L 27.984375 30.90625 
L 27.984375 0 
L 9.1875 0 
z
" id="DejaVuSans-Bold-70"/>
     <path d="M 9.1875 72.90625 
L 30.171875 72.90625 
L 56.6875 22.90625 
L 56.6875 72.90625 
L 74.515625 72.90625 
L 74.515625 0 
L 53.515625 0 
L 27 50 
L 27 0 
L 9.1875 0 
z
" id="DejaVuSans-Bold-78"/>
    </defs>
    <g style="fill:#23231a;" transform="translate(453.841581 578.700515)rotate(-90)scale(0.12 -0.12)">
     <use xlink:href="#DejaVuSans-Bold-80"/>
     <use x="73.291016" xlink:href="#DejaVuSans-Bold-70"/>
     <use x="141.601562" xlink:href="#DejaVuSans-Bold-78"/>
     <use x="225.292969" xlink:href="#DejaVuSans-Bold-50"/>
    </g>
   </g>
   <g id="text_16">
    <!-- PODXL -->
    <defs>
     <path d="M 27.984375 58.6875 
L 27.984375 14.203125 
L 34.71875 14.203125 
Q 46.234375 14.203125 52.3125 19.921875 
Q 58.40625 25.640625 58.40625 36.53125 
Q 58.40625 47.359375 52.34375 53.015625 
Q 46.296875 58.6875 34.71875 58.6875 
z
M 9.1875 72.90625 
L 29 72.90625 
Q 45.609375 72.90625 53.734375 70.53125 
Q 61.859375 68.171875 67.671875 62.5 
Q 72.796875 57.5625 75.28125 51.109375 
Q 77.78125 44.671875 77.78125 36.53125 
Q 77.78125 28.265625 75.28125 21.796875 
Q 72.796875 15.328125 67.671875 10.40625 
Q 61.8125 4.734375 53.609375 2.359375 
Q 45.40625 0 29 0 
L 9.1875 0 
z
" id="DejaVuSans-Bold-68"/>
     <path d="M 9.1875 72.90625 
L 27.984375 72.90625 
L 27.984375 14.203125 
L 60.984375 14.203125 
L 60.984375 0 
L 9.1875 0 
z
" id="DejaVuSans-Bold-76"/>
    </defs>
    <g style="fill:#23231a;" transform="translate(304.252101 589.17239)rotate(-90)scale(0.12 -0.12)">
     <use xlink:href="#DejaVuSans-Bold-80"/>
     <use x="73.291016" xlink:href="#DejaVuSans-Bold-79"/>
     <use x="158.300781" xlink:href="#DejaVuSans-Bold-68"/>
     <use x="241.308594" xlink:href="#DejaVuSans-Bold-88"/>
     <use x="318.408203" xlink:href="#DejaVuSans-Bold-76"/>
    </g>
   </g>
   <g id="text_17">
    <!-- CNN2 -->
    <defs>
     <path d="M 67 4 
Q 61.8125 1.3125 56.203125 -0.046875 
Q 50.59375 -1.421875 44.484375 -1.421875 
Q 26.265625 -1.421875 15.625 8.765625 
Q 4.984375 18.953125 4.984375 36.375 
Q 4.984375 53.859375 15.625 64.03125 
Q 26.265625 74.21875 44.484375 74.21875 
Q 50.59375 74.21875 56.203125 72.84375 
Q 61.8125 71.484375 67 68.796875 
L 67 53.71875 
Q 61.765625 57.28125 56.6875 58.9375 
Q 51.609375 60.59375 46 60.59375 
Q 35.9375 60.59375 30.171875 54.140625 
Q 24.421875 47.703125 24.421875 36.375 
Q 24.421875 25.09375 30.171875 18.640625 
Q 35.9375 12.203125 46 12.203125 
Q 51.609375 12.203125 56.6875 13.859375 
Q 61.765625 15.53125 67 19.09375 
z
" id="DejaVuSans-Bold-67"/>
    </defs>
    <g style="fill:#23231a;" transform="translate(424.984773 580.556765)rotate(-90)scale(0.12 -0.12)">
     <use xlink:href="#DejaVuSans-Bold-67"/>
     <use x="73.388672" xlink:href="#DejaVuSans-Bold-78"/>
     <use x="157.080078" xlink:href="#DejaVuSans-Bold-78"/>
     <use x="240.771484" xlink:href="#DejaVuSans-Bold-50"/>
    </g>
   </g>
   <g id="text_18">
    <!-- Actin cytoskeleton associated -->
    <defs>
     <path d="M 53.421875 13.28125 
L 24.03125 13.28125 
L 19.390625 0 
L 0.484375 0 
L 27.484375 72.90625 
L 49.90625 72.90625 
L 76.90625 0 
L 58.015625 0 
z
M 28.71875 26.8125 
L 48.6875 26.8125 
L 38.71875 55.8125 
z
" id="DejaVuSans-Bold-65"/>
     <path d="M 52.59375 52.984375 
L 52.59375 38.71875 
Q 49.03125 41.15625 45.4375 42.328125 
Q 41.84375 43.5 37.984375 43.5 
Q 30.671875 43.5 26.59375 39.234375 
Q 22.515625 34.96875 22.515625 27.296875 
Q 22.515625 19.625 26.59375 15.34375 
Q 30.671875 11.078125 37.984375 11.078125 
Q 42.09375 11.078125 45.78125 12.296875 
Q 49.46875 13.53125 52.59375 15.921875 
L 52.59375 1.609375 
Q 48.484375 0.09375 44.265625 -0.65625 
Q 40.046875 -1.421875 35.796875 -1.421875 
Q 21 -1.421875 12.640625 6.171875 
Q 4.296875 13.765625 4.296875 27.296875 
Q 4.296875 40.828125 12.640625 48.40625 
Q 21 56 35.796875 56 
Q 40.09375 56 44.265625 55.25 
Q 48.4375 54.5 52.59375 52.984375 
z
" id="DejaVuSans-Bold-99"/>
     <path d="M 27.484375 70.21875 
L 27.484375 54.6875 
L 45.515625 54.6875 
L 45.515625 42.1875 
L 27.484375 42.1875 
L 27.484375 19 
Q 27.484375 15.1875 29 13.84375 
Q 30.515625 12.5 35.015625 12.5 
L 44 12.5 
L 44 0 
L 29 0 
Q 18.65625 0 14.328125 4.3125 
Q 10.015625 8.640625 10.015625 19 
L 10.015625 42.1875 
L 1.3125 42.1875 
L 1.3125 54.6875 
L 10.015625 54.6875 
L 10.015625 70.21875 
z
" id="DejaVuSans-Bold-116"/>
     <path d="M 8.40625 54.6875 
L 25.875 54.6875 
L 25.875 0 
L 8.40625 0 
z
M 8.40625 75.984375 
L 25.875 75.984375 
L 25.875 61.71875 
L 8.40625 61.71875 
z
" id="DejaVuSans-Bold-105"/>
     <path d="M 63.375 33.296875 
L 63.375 0 
L 45.796875 0 
L 45.796875 5.421875 
L 45.796875 25.484375 
Q 45.796875 32.5625 45.484375 35.25 
Q 45.171875 37.9375 44.390625 39.203125 
Q 43.359375 40.921875 41.59375 41.875 
Q 39.84375 42.828125 37.59375 42.828125 
Q 32.125 42.828125 29 38.59375 
Q 25.875 34.375 25.875 26.90625 
L 25.875 0 
L 8.40625 0 
L 8.40625 54.6875 
L 25.875 54.6875 
L 25.875 46.6875 
Q 29.828125 51.46875 34.265625 53.734375 
Q 38.71875 56 44.09375 56 
Q 53.5625 56 58.46875 50.1875 
Q 63.375 44.390625 63.375 33.296875 
z
" id="DejaVuSans-Bold-110"/>
     <path id="DejaVuSans-Bold-32"/>
     <path d="M 1.21875 54.6875 
L 18.703125 54.6875 
L 33.40625 17.578125 
L 45.90625 54.6875 
L 63.375 54.6875 
L 40.375 -5.171875 
Q 36.921875 -14.3125 32.296875 -17.9375 
Q 27.6875 -21.578125 20.125 -21.578125 
L 10.015625 -21.578125 
L 10.015625 -10.109375 
L 15.484375 -10.109375 
Q 19.921875 -10.109375 21.9375 -8.6875 
Q 23.96875 -7.28125 25.09375 -3.609375 
L 25.59375 -2.09375 
z
" id="DejaVuSans-Bold-121"/>
     <path d="M 34.421875 43.5 
Q 28.609375 43.5 25.5625 39.328125 
Q 22.515625 35.15625 22.515625 27.296875 
Q 22.515625 19.4375 25.5625 15.25 
Q 28.609375 11.078125 34.421875 11.078125 
Q 40.140625 11.078125 43.15625 15.25 
Q 46.1875 19.4375 46.1875 27.296875 
Q 46.1875 35.15625 43.15625 39.328125 
Q 40.140625 43.5 34.421875 43.5 
z
M 34.421875 56 
Q 48.53125 56 56.46875 48.375 
Q 64.40625 40.765625 64.40625 27.296875 
Q 64.40625 13.8125 56.46875 6.1875 
Q 48.53125 -1.421875 34.421875 -1.421875 
Q 20.265625 -1.421875 12.28125 6.1875 
Q 4.296875 13.8125 4.296875 27.296875 
Q 4.296875 40.765625 12.28125 48.375 
Q 20.265625 56 34.421875 56 
z
" id="DejaVuSans-Bold-111"/>
     <path d="M 51.125 52.984375 
L 51.125 39.703125 
Q 45.515625 42.046875 40.28125 43.21875 
Q 35.0625 44.390625 30.421875 44.390625 
Q 25.4375 44.390625 23.015625 43.140625 
Q 20.609375 41.890625 20.609375 39.3125 
Q 20.609375 37.203125 22.4375 36.078125 
Q 24.265625 34.96875 29 34.421875 
L 32.078125 33.984375 
Q 45.515625 32.28125 50.140625 28.375 
Q 54.78125 24.46875 54.78125 16.109375 
Q 54.78125 7.375 48.328125 2.96875 
Q 41.890625 -1.421875 29.109375 -1.421875 
Q 23.6875 -1.421875 17.890625 -0.5625 
Q 12.109375 0.296875 6 2 
L 6 15.28125 
Q 11.234375 12.75 16.71875 11.46875 
Q 22.21875 10.203125 27.875 10.203125 
Q 33.015625 10.203125 35.59375 11.609375 
Q 38.1875 13.03125 38.1875 15.828125 
Q 38.1875 18.171875 36.40625 19.3125 
Q 34.625 20.453125 29.296875 21.09375 
L 26.21875 21.484375 
Q 14.546875 22.953125 9.859375 26.90625 
Q 5.171875 30.859375 5.171875 38.921875 
Q 5.171875 47.609375 11.125 51.796875 
Q 17.09375 56 29.390625 56 
Q 34.234375 56 39.546875 55.265625 
Q 44.875 54.546875 51.125 52.984375 
z
" id="DejaVuSans-Bold-115"/>
     <path d="M 8.40625 75.984375 
L 25.875 75.984375 
L 25.875 34.625 
L 46 54.6875 
L 66.3125 54.6875 
L 39.59375 29.59375 
L 68.40625 0 
L 47.21875 0 
L 25.875 22.796875 
L 25.875 0 
L 8.40625 0 
z
" id="DejaVuSans-Bold-107"/>
     <path d="M 62.984375 27.484375 
L 62.984375 22.515625 
L 22.125 22.515625 
Q 22.75 16.359375 26.5625 13.28125 
Q 30.375 10.203125 37.203125 10.203125 
Q 42.71875 10.203125 48.5 11.84375 
Q 54.296875 13.484375 60.40625 16.796875 
L 60.40625 3.328125 
Q 54.203125 0.984375 48 -0.21875 
Q 41.796875 -1.421875 35.59375 -1.421875 
Q 20.75 -1.421875 12.515625 6.125 
Q 4.296875 13.671875 4.296875 27.296875 
Q 4.296875 40.671875 12.375 48.328125 
Q 20.453125 56 34.625 56 
Q 47.515625 56 55.25 48.234375 
Q 62.984375 40.484375 62.984375 27.484375 
z
M 45.015625 33.296875 
Q 45.015625 38.28125 42.109375 41.328125 
Q 39.203125 44.390625 34.515625 44.390625 
Q 29.4375 44.390625 26.265625 41.53125 
Q 23.09375 38.671875 22.3125 33.296875 
z
" id="DejaVuSans-Bold-101"/>
     <path d="M 8.40625 75.984375 
L 25.875 75.984375 
L 25.875 0 
L 8.40625 0 
z
" id="DejaVuSans-Bold-108"/>
     <path d="M 32.90625 24.609375 
Q 27.4375 24.609375 24.671875 22.75 
Q 21.921875 20.90625 21.921875 17.28125 
Q 21.921875 13.96875 24.140625 12.078125 
Q 26.375 10.203125 30.328125 10.203125 
Q 35.25 10.203125 38.625 13.734375 
Q 42 17.28125 42 22.609375 
L 42 24.609375 
z
M 59.625 31.203125 
L 59.625 0 
L 42 0 
L 42 8.109375 
Q 38.484375 3.125 34.078125 0.84375 
Q 29.6875 -1.421875 23.390625 -1.421875 
Q 14.890625 -1.421875 9.59375 3.53125 
Q 4.296875 8.5 4.296875 16.40625 
Q 4.296875 26.03125 10.90625 30.515625 
Q 17.53125 35.015625 31.6875 35.015625 
L 42 35.015625 
L 42 36.375 
Q 42 40.53125 38.71875 42.453125 
Q 35.453125 44.390625 28.515625 44.390625 
Q 22.90625 44.390625 18.0625 43.265625 
Q 13.234375 42.140625 9.078125 39.890625 
L 9.078125 53.21875 
Q 14.703125 54.59375 20.359375 55.296875 
Q 26.03125 56 31.6875 56 
Q 46.484375 56 53.046875 50.171875 
Q 59.625 44.34375 59.625 31.203125 
z
" id="DejaVuSans-Bold-97"/>
     <path d="M 45.609375 46.6875 
L 45.609375 75.984375 
L 63.1875 75.984375 
L 63.1875 0 
L 45.609375 0 
L 45.609375 7.90625 
Q 42 3.078125 37.640625 0.828125 
Q 33.296875 -1.421875 27.59375 -1.421875 
Q 17.484375 -1.421875 10.984375 6.609375 
Q 4.5 14.65625 4.5 27.296875 
Q 4.5 39.9375 10.984375 47.96875 
Q 17.484375 56 27.59375 56 
Q 33.25 56 37.625 53.734375 
Q 42 51.46875 45.609375 46.6875 
z
M 34.078125 11.28125 
Q 39.703125 11.28125 42.65625 15.375 
Q 45.609375 19.484375 45.609375 27.296875 
Q 45.609375 35.109375 42.65625 39.203125 
Q 39.703125 43.3125 34.078125 43.3125 
Q 28.515625 43.3125 25.5625 39.203125 
Q 22.609375 35.109375 22.609375 27.296875 
Q 22.609375 19.484375 25.5625 15.375 
Q 28.515625 11.28125 34.078125 11.28125 
z
" id="DejaVuSans-Bold-100"/>
    </defs>
    <g style="fill:#23231a;" transform="translate(547.392145 575.3417)scale(0.2 -0.2)">
     <use xlink:href="#DejaVuSans-Bold-65"/>
     <use x="77.392578" xlink:href="#DejaVuSans-Bold-99"/>
     <use x="136.669922" xlink:href="#DejaVuSans-Bold-116"/>
     <use x="184.472656" xlink:href="#DejaVuSans-Bold-105"/>
     <use x="218.75" xlink:href="#DejaVuSans-Bold-110"/>
     <use x="289.941406" xlink:href="#DejaVuSans-Bold-32"/>
     <use x="324.755859" xlink:href="#DejaVuSans-Bold-99"/>
     <use x="384.033203" xlink:href="#DejaVuSans-Bold-121"/>
     <use x="449.21875" xlink:href="#DejaVuSans-Bold-116"/>
     <use x="497.021484" xlink:href="#DejaVuSans-Bold-111"/>
     <use x="565.722656" xlink:href="#DejaVuSans-Bold-115"/>
     <use x="625.244141" xlink:href="#DejaVuSans-Bold-107"/>
     <use x="691.716797" xlink:href="#DejaVuSans-Bold-101"/>
     <use x="759.539062" xlink:href="#DejaVuSans-Bold-108"/>
     <use x="793.816406" xlink:href="#DejaVuSans-Bold-101"/>
     <use x="861.638672" xlink:href="#DejaVuSans-Bold-116"/>
     <use x="909.441406" xlink:href="#DejaVuSans-Bold-111"/>
     <use x="978.142578" xlink:href="#DejaVuSans-Bold-110"/>
     <use x="1049.333984" xlink:href="#DejaVuSans-Bold-32"/>
     <use x="1084.148438" xlink:href="#DejaVuSans-Bold-97"/>
     <use x="1151.628906" xlink:href="#DejaVuSans-Bold-115"/>
     <use x="1211.150391" xlink:href="#DejaVuSans-Bold-115"/>
     <use x="1270.671875" xlink:href="#DejaVuSans-Bold-111"/>
     <use x="1339.373047" xlink:href="#DejaVuSans-Bold-99"/>
     <use x="1398.650391" xlink:href="#DejaVuSans-Bold-105"/>
     <use x="1432.927734" xlink:href="#DejaVuSans-Bold-97"/>
     <use x="1500.408203" xlink:href="#DejaVuSans-Bold-116"/>
     <use x="1548.210938" xlink:href="#DejaVuSans-Bold-101"/>
     <use x="1616.033203" xlink:href="#DejaVuSans-Bold-100"/>
    </g>
   </g>
   <g id="text_19">
    <!-- MYO1B -->
    <g style="fill:#c40b0b;" transform="translate(422.665747 458.710211)rotate(-90)scale(0.12 -0.12)">
     <use xlink:href="#DejaVuSans-Bold-77"/>
     <use x="99.511719" xlink:href="#DejaVuSans-Bold-89"/>
     <use x="171.876953" xlink:href="#DejaVuSans-Bold-79"/>
     <use x="256.886719" xlink:href="#DejaVuSans-Bold-49"/>
     <use x="326.466797" xlink:href="#DejaVuSans-Bold-66"/>
    </g>
   </g>
   <g id="text_20">
    <!-- MYO1E -->
    <defs>
     <path d="M 9.1875 72.90625 
L 59.90625 72.90625 
L 59.90625 58.6875 
L 27.984375 58.6875 
L 27.984375 45.125 
L 58.015625 45.125 
L 58.015625 30.90625 
L 27.984375 30.90625 
L 27.984375 14.203125 
L 60.984375 14.203125 
L 60.984375 0 
L 9.1875 0 
z
" id="DejaVuSans-Bold-69"/>
    </defs>
    <g style="fill:#c40b0b;" transform="translate(324.122337 457.761461)rotate(-90)scale(0.12 -0.12)">
     <use xlink:href="#DejaVuSans-Bold-77"/>
     <use x="99.511719" xlink:href="#DejaVuSans-Bold-89"/>
     <use x="171.876953" xlink:href="#DejaVuSans-Bold-79"/>
     <use x="256.886719" xlink:href="#DejaVuSans-Bold-49"/>
     <use x="326.466797" xlink:href="#DejaVuSans-Bold-69"/>
    </g>
   </g>
   <g id="text_21">
    <!-- MYH10 -->
    <g style="fill:#c40b0b;" transform="translate(432.539547 457.759586)rotate(-90)scale(0.12 -0.12)">
     <use xlink:href="#DejaVuSans-Bold-77"/>
     <use x="99.511719" xlink:href="#DejaVuSans-Bold-89"/>
     <use x="171.923828" xlink:href="#DejaVuSans-Bold-72"/>
     <use x="255.615234" xlink:href="#DejaVuSans-Bold-49"/>
     <use x="325.195312" xlink:href="#DejaVuSans-Bold-48"/>
    </g>
   </g>
   <g id="text_22">
    <!-- Myosin -->
    <g style="fill:#c40b0b;" transform="translate(547.392145 442.413897)scale(0.2 -0.2)">
     <use xlink:href="#DejaVuSans-Bold-77"/>
     <use x="99.511719" xlink:href="#DejaVuSans-Bold-121"/>
     <use x="164.697266" xlink:href="#DejaVuSans-Bold-111"/>
     <use x="233.398438" xlink:href="#DejaVuSans-Bold-115"/>
     <use x="292.919922" xlink:href="#DejaVuSans-Bold-105"/>
     <use x="327.197266" xlink:href="#DejaVuSans-Bold-110"/>
    </g>
   </g>
   <g id="text_23">
    <!-- ITGA1 -->
    <defs>
     <path d="M 0.484375 72.90625 
L 67.671875 72.90625 
L 67.671875 58.6875 
L 43.5 58.6875 
L 43.5 0 
L 24.703125 0 
L 24.703125 58.6875 
L 0.484375 58.6875 
z
" id="DejaVuSans-Bold-84"/>
     <path d="M 74.703125 5.421875 
Q 67.671875 2 60.109375 0.28125 
Q 52.546875 -1.421875 44.484375 -1.421875 
Q 26.265625 -1.421875 15.625 8.765625 
Q 4.984375 18.953125 4.984375 36.375 
Q 4.984375 54 15.8125 64.109375 
Q 26.65625 74.21875 45.515625 74.21875 
Q 52.78125 74.21875 59.4375 72.84375 
Q 66.109375 71.484375 72.015625 68.796875 
L 72.015625 53.71875 
Q 65.921875 57.171875 59.890625 58.875 
Q 53.859375 60.59375 47.796875 60.59375 
Q 36.578125 60.59375 30.5 54.3125 
Q 24.421875 48.046875 24.421875 36.375 
Q 24.421875 24.8125 30.28125 18.5 
Q 36.140625 12.203125 46.921875 12.203125 
Q 49.859375 12.203125 52.375 12.5625 
Q 54.890625 12.9375 56.890625 13.71875 
L 56.890625 27.875 
L 45.40625 27.875 
L 45.40625 40.484375 
L 74.703125 40.484375 
z
" id="DejaVuSans-Bold-71"/>
    </defs>
    <g style="fill:#6b6b37;" transform="translate(160.770138 317.596158)rotate(-90)scale(0.12 -0.12)">
     <use xlink:href="#DejaVuSans-Bold-73"/>
     <use x="37.207031" xlink:href="#DejaVuSans-Bold-84"/>
     <use x="105.419922" xlink:href="#DejaVuSans-Bold-71"/>
     <use x="187.5" xlink:href="#DejaVuSans-Bold-65"/>
     <use x="264.892578" xlink:href="#DejaVuSans-Bold-49"/>
    </g>
   </g>
   <g id="text_24">
    <!-- LAMB2 -->
    <g style="fill:#6b6b37;" transform="translate(202.555349 323.830533)rotate(-90)scale(0.12 -0.12)">
     <use xlink:href="#DejaVuSans-Bold-76"/>
     <use x="63.720703" xlink:href="#DejaVuSans-Bold-65"/>
     <use x="141.113281" xlink:href="#DejaVuSans-Bold-77"/>
     <use x="240.625" xlink:href="#DejaVuSans-Bold-66"/>
     <use x="316.845703" xlink:href="#DejaVuSans-Bold-50"/>
    </g>
   </g>
   <g id="text_25">
    <!-- CTNNB1 -->
    <g style="fill:#6b6b37;" transform="translate(270.901358 332.033658)rotate(-90)scale(0.12 -0.12)">
     <use xlink:href="#DejaVuSans-Bold-67"/>
     <use x="73.388672" xlink:href="#DejaVuSans-Bold-84"/>
     <use x="141.601562" xlink:href="#DejaVuSans-Bold-78"/>
     <use x="225.292969" xlink:href="#DejaVuSans-Bold-78"/>
     <use x="308.984375" xlink:href="#DejaVuSans-Bold-66"/>
     <use x="385.205078" xlink:href="#DejaVuSans-Bold-49"/>
    </g>
   </g>
   <g id="text_26">
    <!-- ITGB1 -->
    <g style="fill:#6b6b37;" transform="translate(284.245635 317.455533)rotate(-90)scale(0.12 -0.12)">
     <use xlink:href="#DejaVuSans-Bold-73"/>
     <use x="37.207031" xlink:href="#DejaVuSans-Bold-84"/>
     <use x="105.419922" xlink:href="#DejaVuSans-Bold-71"/>
     <use x="187.5" xlink:href="#DejaVuSans-Bold-66"/>
     <use x="263.720703" xlink:href="#DejaVuSans-Bold-49"/>
    </g>
   </g>
   <g id="text_27">
    <!-- MAPK3 -->
    <defs>
     <path d="M 9.1875 72.90625 
L 27.984375 72.90625 
L 27.984375 46.296875 
L 55.078125 72.90625 
L 76.90625 72.90625 
L 41.796875 38.375 
L 80.515625 0 
L 56.984375 0 
L 27.984375 28.71875 
L 27.984375 0 
L 9.1875 0 
z
" id="DejaVuSans-Bold-75"/>
     <path d="M 46.578125 39.3125 
Q 53.953125 37.40625 57.78125 32.6875 
Q 61.625 27.984375 61.625 20.703125 
Q 61.625 9.859375 53.3125 4.21875 
Q 45.015625 -1.421875 29.109375 -1.421875 
Q 23.484375 -1.421875 17.84375 -0.515625 
Q 12.203125 0.390625 6.6875 2.203125 
L 6.6875 16.703125 
Q 11.96875 14.0625 17.15625 12.71875 
Q 22.359375 11.375 27.390625 11.375 
Q 34.859375 11.375 38.84375 13.953125 
Q 42.828125 16.546875 42.828125 21.390625 
Q 42.828125 26.375 38.75 28.9375 
Q 34.671875 31.5 26.703125 31.5 
L 19.1875 31.5 
L 19.1875 43.609375 
L 27.09375 43.609375 
Q 34.1875 43.609375 37.640625 45.828125 
Q 41.109375 48.046875 41.109375 52.59375 
Q 41.109375 56.78125 37.734375 59.078125 
Q 34.375 61.375 28.21875 61.375 
Q 23.6875 61.375 19.046875 60.34375 
Q 14.40625 59.328125 9.8125 57.328125 
L 9.8125 71.09375 
Q 15.375 72.65625 20.84375 73.4375 
Q 26.3125 74.21875 31.59375 74.21875 
Q 45.796875 74.21875 52.84375 69.546875 
Q 59.90625 64.890625 59.90625 55.515625 
Q 59.90625 49.125 56.53125 45.046875 
Q 53.171875 40.96875 46.578125 39.3125 
z
" id="DejaVuSans-Bold-51"/>
    </defs>
    <g style="fill:#6b6b37;" transform="translate(290.536362 325.131783)rotate(-90)scale(0.12 -0.12)">
     <use xlink:href="#DejaVuSans-Bold-77"/>
     <use x="99.511719" xlink:href="#DejaVuSans-Bold-65"/>
     <use x="176.904297" xlink:href="#DejaVuSans-Bold-80"/>
     <use x="250.195312" xlink:href="#DejaVuSans-Bold-75"/>
     <use x="327.685547" xlink:href="#DejaVuSans-Bold-51"/>
    </g>
   </g>
   <g id="text_28">
    <!-- IGF1R -->
    <defs>
     <path d="M 35.890625 40.578125 
Q 41.796875 40.578125 44.359375 42.765625 
Q 46.921875 44.96875 46.921875 50 
Q 46.921875 54.984375 44.359375 57.125 
Q 41.796875 59.28125 35.890625 59.28125 
L 27.984375 59.28125 
L 27.984375 40.578125 
z
M 27.984375 27.59375 
L 27.984375 0 
L 9.1875 0 
L 9.1875 72.90625 
L 37.890625 72.90625 
Q 52.296875 72.90625 59 68.0625 
Q 65.71875 63.234375 65.71875 52.78125 
Q 65.71875 45.5625 62.21875 40.921875 
Q 58.734375 36.28125 51.703125 34.078125 
Q 55.5625 33.203125 58.609375 30.09375 
Q 61.671875 27 64.796875 20.703125 
L 75 0 
L 54.984375 0 
L 46.09375 18.109375 
Q 43.40625 23.578125 40.640625 25.578125 
Q 37.890625 27.59375 33.296875 27.59375 
z
" id="DejaVuSans-Bold-82"/>
    </defs>
    <g style="fill:#6b6b37;" transform="translate(314.312494 317.560533)rotate(-90)scale(0.12 -0.12)">
     <use xlink:href="#DejaVuSans-Bold-73"/>
     <use x="37.207031" xlink:href="#DejaVuSans-Bold-71"/>
     <use x="119.287109" xlink:href="#DejaVuSans-Bold-70"/>
     <use x="187.597656" xlink:href="#DejaVuSans-Bold-49"/>
     <use x="257.177734" xlink:href="#DejaVuSans-Bold-82"/>
    </g>
   </g>
   <g id="text_29">
    <!-- LAMA5 -->
    <defs>
     <path d="M 10.59375 72.90625 
L 57.328125 72.90625 
L 57.328125 59.078125 
L 25.59375 59.078125 
L 25.59375 47.796875 
Q 27.734375 48.390625 29.90625 48.703125 
Q 32.078125 49.03125 34.421875 49.03125 
Q 47.75 49.03125 55.171875 42.359375 
Q 62.59375 35.6875 62.59375 23.78125 
Q 62.59375 11.96875 54.515625 5.265625 
Q 46.4375 -1.421875 32.078125 -1.421875 
Q 25.875 -1.421875 19.796875 -0.21875 
Q 13.71875 0.984375 7.71875 3.421875 
L 7.71875 18.21875 
Q 13.671875 14.796875 19.015625 13.078125 
Q 24.359375 11.375 29.109375 11.375 
Q 35.9375 11.375 39.859375 14.71875 
Q 43.796875 18.0625 43.796875 23.78125 
Q 43.796875 29.546875 39.859375 32.859375 
Q 35.9375 36.1875 29.109375 36.1875 
Q 25.046875 36.1875 20.453125 35.125 
Q 15.875 34.078125 10.59375 31.890625 
z
" id="DejaVuSans-Bold-53"/>
    </defs>
    <g style="fill:#6b6b37;" transform="translate(315.073607 323.971158)rotate(-90)scale(0.12 -0.12)">
     <use xlink:href="#DejaVuSans-Bold-76"/>
     <use x="63.720703" xlink:href="#DejaVuSans-Bold-65"/>
     <use x="141.113281" xlink:href="#DejaVuSans-Bold-77"/>
     <use x="240.625" xlink:href="#DejaVuSans-Bold-65"/>
     <use x="318.017578" xlink:href="#DejaVuSans-Bold-53"/>
    </g>
   </g>
   <g id="text_30">
    <!-- Focal adhesion -->
    <defs>
     <path d="M 63.375 33.296875 
L 63.375 0 
L 45.796875 0 
L 45.796875 5.421875 
L 45.796875 25.390625 
Q 45.796875 32.5625 45.484375 35.25 
Q 45.171875 37.9375 44.390625 39.203125 
Q 43.359375 40.921875 41.59375 41.875 
Q 39.84375 42.828125 37.59375 42.828125 
Q 32.125 42.828125 29 38.59375 
Q 25.875 34.375 25.875 26.90625 
L 25.875 0 
L 8.40625 0 
L 8.40625 75.984375 
L 25.875 75.984375 
L 25.875 46.6875 
Q 29.828125 51.46875 34.265625 53.734375 
Q 38.71875 56 44.09375 56 
Q 53.5625 56 58.46875 50.1875 
Q 63.375 44.390625 63.375 33.296875 
z
" id="DejaVuSans-Bold-104"/>
    </defs>
    <g style="fill:#6b6b37;" transform="translate(547.392145 309.564219)scale(0.2 -0.2)">
     <use xlink:href="#DejaVuSans-Bold-70"/>
     <use x="68.248047" xlink:href="#DejaVuSans-Bold-111"/>
     <use x="136.949219" xlink:href="#DejaVuSans-Bold-99"/>
     <use x="196.226562" xlink:href="#DejaVuSans-Bold-97"/>
     <use x="263.707031" xlink:href="#DejaVuSans-Bold-108"/>
     <use x="297.984375" xlink:href="#DejaVuSans-Bold-32"/>
     <use x="332.798828" xlink:href="#DejaVuSans-Bold-97"/>
     <use x="400.279297" xlink:href="#DejaVuSans-Bold-100"/>
     <use x="471.861328" xlink:href="#DejaVuSans-Bold-104"/>
     <use x="543.052734" xlink:href="#DejaVuSans-Bold-101"/>
     <use x="610.875" xlink:href="#DejaVuSans-Bold-115"/>
     <use x="670.396484" xlink:href="#DejaVuSans-Bold-105"/>
     <use x="704.673828" xlink:href="#DejaVuSans-Bold-111"/>
     <use x="773.375" xlink:href="#DejaVuSans-Bold-110"/>
    </g>
   </g>
   <g id="text_31">
    <!-- RAP2C -->
    <g style="fill:#35abcc;" transform="translate(273.149284 189.010855)rotate(-90)scale(0.12 -0.12)">
     <use xlink:href="#DejaVuSans-Bold-82"/>
     <use x="77.001953" xlink:href="#DejaVuSans-Bold-65"/>
     <use x="154.394531" xlink:href="#DejaVuSans-Bold-80"/>
     <use x="227.685547" xlink:href="#DejaVuSans-Bold-50"/>
     <use x="297.265625" xlink:href="#DejaVuSans-Bold-67"/>
    </g>
   </g>
   <g id="text_32">
    <!-- ROBO1 -->
    <g style="fill:#35abcc;" transform="translate(286.474194 191.67148)rotate(-90)scale(0.12 -0.12)">
     <use xlink:href="#DejaVuSans-Bold-82"/>
     <use x="77.001953" xlink:href="#DejaVuSans-Bold-79"/>
     <use x="162.011719" xlink:href="#DejaVuSans-Bold-66"/>
     <use x="238.232422" xlink:href="#DejaVuSans-Bold-79"/>
     <use x="323.242188" xlink:href="#DejaVuSans-Bold-49"/>
    </g>
   </g>
   <g id="text_33">
    <!-- BST2 -->
    <g style="fill:#35abcc;" transform="translate(430.036527 178.855855)rotate(-90)scale(0.12 -0.12)">
     <use xlink:href="#DejaVuSans-Bold-66"/>
     <use x="76.220703" xlink:href="#DejaVuSans-Bold-83"/>
     <use x="148.242188" xlink:href="#DejaVuSans-Bold-84"/>
     <use x="216.455078" xlink:href="#DejaVuSans-Bold-50"/>
    </g>
   </g>
   <g id="text_34">
    <!-- PKP2 -->
    <g style="fill:#35abcc;" transform="translate(459.113727 179.770855)rotate(-90)scale(0.12 -0.12)">
     <use xlink:href="#DejaVuSans-Bold-80"/>
     <use x="73.291016" xlink:href="#DejaVuSans-Bold-75"/>
     <use x="150.78125" xlink:href="#DejaVuSans-Bold-80"/>
     <use x="224.072266" xlink:href="#DejaVuSans-Bold-50"/>
    </g>
   </g>
   <g id="text_35">
    <!-- Negative regulation of cell migration -->
    <defs>
     <path d="M 45.609375 9.28125 
Q 42 4.5 37.640625 2.25 
Q 33.296875 0 27.59375 0 
Q 17.578125 0 11.03125 7.875 
Q 4.5 15.765625 4.5 27.984375 
Q 4.5 40.234375 11.03125 48.0625 
Q 17.578125 55.90625 27.59375 55.90625 
Q 33.296875 55.90625 37.640625 53.65625 
Q 42 51.421875 45.609375 46.578125 
L 45.609375 54.6875 
L 63.1875 54.6875 
L 63.1875 5.515625 
Q 63.1875 -7.671875 54.859375 -14.625 
Q 46.53125 -21.578125 30.71875 -21.578125 
Q 25.59375 -21.578125 20.796875 -20.796875 
Q 16.015625 -20.015625 11.1875 -18.40625 
L 11.1875 -4.78125 
Q 15.765625 -7.421875 20.15625 -8.71875 
Q 24.5625 -10.015625 29 -10.015625 
Q 37.59375 -10.015625 41.59375 -6.25 
Q 45.609375 -2.484375 45.609375 5.515625 
z
M 34.078125 43.3125 
Q 28.65625 43.3125 25.625 39.296875 
Q 22.609375 35.296875 22.609375 27.984375 
Q 22.609375 20.453125 25.53125 16.578125 
Q 28.46875 12.703125 34.078125 12.703125 
Q 39.546875 12.703125 42.578125 16.703125 
Q 45.609375 20.703125 45.609375 27.984375 
Q 45.609375 35.296875 42.578125 39.296875 
Q 39.546875 43.3125 34.078125 43.3125 
z
" id="DejaVuSans-Bold-103"/>
     <path d="M 1.515625 54.6875 
L 19 54.6875 
L 32.625 16.890625 
L 46.1875 54.6875 
L 63.71875 54.6875 
L 42.1875 0 
L 23 0 
z
" id="DejaVuSans-Bold-118"/>
     <path d="M 49.03125 39.796875 
Q 46.734375 40.875 44.453125 41.375 
Q 42.1875 41.890625 39.890625 41.890625 
Q 33.15625 41.890625 29.515625 37.5625 
Q 25.875 33.25 25.875 25.203125 
L 25.875 0 
L 8.40625 0 
L 8.40625 54.6875 
L 25.875 54.6875 
L 25.875 45.703125 
Q 29.25 51.078125 33.609375 53.53125 
Q 37.984375 56 44.09375 56 
Q 44.96875 56 45.984375 55.921875 
Q 47.015625 55.859375 48.96875 55.609375 
z
" id="DejaVuSans-Bold-114"/>
     <path d="M 7.8125 21.296875 
L 7.8125 54.6875 
L 25.390625 54.6875 
L 25.390625 49.21875 
Q 25.390625 44.78125 25.34375 38.0625 
Q 25.296875 31.34375 25.296875 29.109375 
Q 25.296875 22.515625 25.640625 19.609375 
Q 25.984375 16.703125 26.8125 15.375 
Q 27.875 13.671875 29.609375 12.734375 
Q 31.34375 11.8125 33.59375 11.8125 
Q 39.0625 11.8125 42.1875 16.015625 
Q 45.3125 20.21875 45.3125 27.6875 
L 45.3125 54.6875 
L 62.796875 54.6875 
L 62.796875 0 
L 45.3125 0 
L 45.3125 7.90625 
Q 41.359375 3.125 36.9375 0.84375 
Q 32.515625 -1.421875 27.203125 -1.421875 
Q 17.71875 -1.421875 12.765625 4.390625 
Q 7.8125 10.203125 7.8125 21.296875 
z
" id="DejaVuSans-Bold-117"/>
     <path d="M 44.390625 75.984375 
L 44.390625 64.5 
L 34.71875 64.5 
Q 31 64.5 29.53125 63.15625 
Q 28.078125 61.8125 28.078125 58.5 
L 28.078125 54.6875 
L 43.015625 54.6875 
L 43.015625 42.1875 
L 28.078125 42.1875 
L 28.078125 0 
L 10.59375 0 
L 10.59375 42.1875 
L 1.90625 42.1875 
L 1.90625 54.6875 
L 10.59375 54.6875 
L 10.59375 58.5 
Q 10.59375 67.4375 15.578125 71.703125 
Q 20.5625 75.984375 31 75.984375 
z
" id="DejaVuSans-Bold-102"/>
     <path d="M 59.078125 45.609375 
Q 62.40625 50.6875 66.96875 53.34375 
Q 71.53125 56 77 56 
Q 86.421875 56 91.359375 50.1875 
Q 96.296875 44.390625 96.296875 33.296875 
L 96.296875 0 
L 78.71875 0 
L 78.71875 28.515625 
Q 78.765625 29.15625 78.78125 29.828125 
Q 78.8125 30.515625 78.8125 31.78125 
Q 78.8125 37.59375 77.09375 40.203125 
Q 75.390625 42.828125 71.578125 42.828125 
Q 66.609375 42.828125 63.890625 38.71875 
Q 61.1875 34.625 61.078125 26.859375 
L 61.078125 0 
L 43.5 0 
L 43.5 28.515625 
Q 43.5 37.59375 41.9375 40.203125 
Q 40.375 42.828125 36.375 42.828125 
Q 31.34375 42.828125 28.609375 38.703125 
Q 25.875 34.578125 25.875 26.90625 
L 25.875 0 
L 8.296875 0 
L 8.296875 54.6875 
L 25.875 54.6875 
L 25.875 46.6875 
Q 29.109375 51.3125 33.28125 53.65625 
Q 37.453125 56 42.484375 56 
Q 48.140625 56 52.484375 53.265625 
Q 56.84375 50.53125 59.078125 45.609375 
z
" id="DejaVuSans-Bold-109"/>
    </defs>
    <g style="fill:#35abcc;" transform="translate(547.392145 176.558291)scale(0.2 -0.2)">
     <use xlink:href="#DejaVuSans-Bold-78"/>
     <use x="83.691406" xlink:href="#DejaVuSans-Bold-101"/>
     <use x="151.513672" xlink:href="#DejaVuSans-Bold-103"/>
     <use x="223.095703" xlink:href="#DejaVuSans-Bold-97"/>
     <use x="290.576172" xlink:href="#DejaVuSans-Bold-116"/>
     <use x="338.378906" xlink:href="#DejaVuSans-Bold-105"/>
     <use x="372.65625" xlink:href="#DejaVuSans-Bold-118"/>
     <use x="437.841797" xlink:href="#DejaVuSans-Bold-101"/>
     <use x="505.664062" xlink:href="#DejaVuSans-Bold-32"/>
     <use x="540.478516" xlink:href="#DejaVuSans-Bold-114"/>
     <use x="589.794922" xlink:href="#DejaVuSans-Bold-101"/>
     <use x="657.617188" xlink:href="#DejaVuSans-Bold-103"/>
     <use x="729.199219" xlink:href="#DejaVuSans-Bold-117"/>
     <use x="800.390625" xlink:href="#DejaVuSans-Bold-108"/>
     <use x="834.667969" xlink:href="#DejaVuSans-Bold-97"/>
     <use x="902.148438" xlink:href="#DejaVuSans-Bold-116"/>
     <use x="949.951172" xlink:href="#DejaVuSans-Bold-105"/>
     <use x="984.228516" xlink:href="#DejaVuSans-Bold-111"/>
     <use x="1052.929688" xlink:href="#DejaVuSans-Bold-110"/>
     <use x="1124.121094" xlink:href="#DejaVuSans-Bold-32"/>
     <use x="1158.935547" xlink:href="#DejaVuSans-Bold-111"/>
     <use x="1227.636719" xlink:href="#DejaVuSans-Bold-102"/>
     <use x="1271.142578" xlink:href="#DejaVuSans-Bold-32"/>
     <use x="1305.957031" xlink:href="#DejaVuSans-Bold-99"/>
     <use x="1365.234375" xlink:href="#DejaVuSans-Bold-101"/>
     <use x="1433.056641" xlink:href="#DejaVuSans-Bold-108"/>
     <use x="1467.333984" xlink:href="#DejaVuSans-Bold-108"/>
     <use x="1501.611328" xlink:href="#DejaVuSans-Bold-32"/>
     <use x="1536.425781" xlink:href="#DejaVuSans-Bold-109"/>
     <use x="1640.625" xlink:href="#DejaVuSans-Bold-105"/>
     <use x="1674.902344" xlink:href="#DejaVuSans-Bold-103"/>
     <use x="1746.484375" xlink:href="#DejaVuSans-Bold-114"/>
     <use x="1795.800781" xlink:href="#DejaVuSans-Bold-97"/>
     <use x="1863.28125" xlink:href="#DejaVuSans-Bold-116"/>
     <use x="1911.083984" xlink:href="#DejaVuSans-Bold-105"/>
     <use x="1945.361328" xlink:href="#DejaVuSans-Bold-111"/>
     <use x="2014.0625" xlink:href="#DejaVuSans-Bold-110"/>
    </g>
   </g>
  </g>
 </g>
 <defs>
  <clipPath id="p131c4553b6">
   <rect height="652.32" width="669.6" x="108" y="103.68"/>
  </clipPath>
 </defs>
</svg>
